<svg width="172" height="40" viewBox="0 0 172 40" fill="none" xmlns="http://www.w3.org/2000/svg">
    <rect x="0.4375" width="171" height="40" rx="6" fill="#FA8C16"/>
    <g clip-path="url(#clip0_1805:117779)">
        <path d="M24.7422 23.9844H25.625C26.3802 22.474 26.9766 20.9661 27.4141 19.4609C27.8516 17.9505 28.1771 16.3229 28.3906 14.5781H35.0469V23.9844H36.5703V29.3281H34.2344V26H27.0781V29.3281H24.7422V23.9844ZM30.3125 16.5938C30.1458 17.7865 29.8672 19.0495 29.4766 20.3828C29.0911 21.7161 28.6562 22.9167 28.1719 23.9844H32.6328V16.5938H30.3125ZM40.0469 21.6172C40.0469 22.4818 40.1875 23.1354 40.4688 23.5781C40.7552 24.0208 41.2188 24.2422 41.8594 24.2422C42.4948 24.2422 42.9505 24.0234 43.2266 23.5859C43.5078 23.1432 43.6484 22.487 43.6484 21.6172C43.6484 20.7526 43.5078 20.1042 43.2266 19.6719C42.9453 19.2396 42.4844 19.0234 41.8438 19.0234C41.2083 19.0234 40.75 19.2396 40.4688 19.6719C40.1875 20.099 40.0469 20.7474 40.0469 21.6172ZM46.0859 21.6172C46.0859 23.0391 45.7109 24.151 44.9609 24.9531C44.2109 25.7552 43.1667 26.1562 41.8281 26.1562C40.9896 26.1562 40.25 25.974 39.6094 25.6094C38.9688 25.2396 38.4766 24.7109 38.1328 24.0234C37.7891 23.3359 37.6172 22.5339 37.6172 21.6172C37.6172 20.1901 37.9896 19.0807 38.7344 18.2891C39.4792 17.4974 40.526 17.1016 41.875 17.1016C42.7135 17.1016 43.4531 17.2839 44.0938 17.6484C44.7344 18.013 45.2266 18.5365 45.5703 19.2188C45.9141 19.901 46.0859 20.7005 46.0859 21.6172ZM53.5234 24.2578V19.0547H51.7344C51.6042 20.0234 51.4245 20.9427 51.1953 21.8125C50.9714 22.6823 50.6589 23.4974 50.2578 24.2578H53.5234ZM57.1875 29.1328H55.0469V26H49.1719V29.1328H47.0312V24.2578H47.7656C48.2656 23.4818 48.6849 22.5026 49.0234 21.3203C49.362 20.138 49.599 18.7865 49.7344 17.2656H55.9062V24.2578H57.1875V29.1328ZM64.2266 26L63.7656 24.8125H63.7031C63.3021 25.3177 62.888 25.6693 62.4609 25.8672C62.0391 26.0599 61.487 26.1562 60.8047 26.1562C59.9661 26.1562 59.3047 25.9167 58.8203 25.4375C58.3411 24.9583 58.1016 24.276 58.1016 23.3906C58.1016 22.4635 58.4245 21.7812 59.0703 21.3438C59.7214 20.901 60.7005 20.6562 62.0078 20.6094L63.5234 20.5625V20.1797C63.5234 19.2943 63.0703 18.8516 62.1641 18.8516C61.4661 18.8516 60.6458 19.0625 59.7031 19.4844L58.9141 17.875C59.9193 17.349 61.0339 17.0859 62.2578 17.0859C63.4297 17.0859 64.3281 17.3411 64.9531 17.8516C65.5781 18.362 65.8906 19.138 65.8906 20.1797V26H64.2266ZM63.5234 21.9531L62.6016 21.9844C61.9089 22.0052 61.3932 22.1302 61.0547 22.3594C60.7161 22.5885 60.5469 22.9375 60.5469 23.4062C60.5469 24.0781 60.9323 24.4141 61.7031 24.4141C62.2552 24.4141 62.6953 24.2552 63.0234 23.9375C63.3568 23.6198 63.5234 23.1979 63.5234 22.6719V21.9531ZM75.5781 17.2656V19.0547H72.7188V26H70.3359V19.0547H67.4688V17.2656H75.5781ZM79.5156 17.2656V20.7188C79.5156 21.0833 79.4557 21.974 79.3359 23.3906L83.3672 17.2656H86.2344V26H83.9297V22.5156C83.9297 21.8958 83.9818 21.0208 84.0859 19.8906L80.0703 26H77.2109V17.2656H79.5156ZM98.9297 17.2656V19.0547H95.2812V26H92.8984V17.2656H98.9297ZM99.3047 17.2656H101.914L103.562 22.1797C103.703 22.6068 103.799 23.112 103.852 23.6953H103.898C103.956 23.1589 104.068 22.6536 104.234 22.1797L105.852 17.2656H108.406L104.711 27.1172C104.372 28.0286 103.888 28.7109 103.258 29.1641C102.633 29.6172 101.901 29.8438 101.062 29.8438C100.651 29.8438 100.247 29.7995 99.8516 29.7109V27.8203C100.138 27.888 100.451 27.9219 100.789 27.9219C101.211 27.9219 101.578 27.7917 101.891 27.5312C102.208 27.276 102.456 26.888 102.633 26.3672L102.773 25.9375L99.3047 17.2656ZM114.461 26.1562C113.435 26.1562 112.63 25.7839 112.047 25.0391H111.922C112.005 25.7682 112.047 26.1901 112.047 26.3047V29.8438H109.664V17.2656H111.602L111.938 18.3984H112.047C112.604 17.5339 113.43 17.1016 114.523 17.1016C115.555 17.1016 116.362 17.5 116.945 18.2969C117.529 19.0938 117.82 20.2005 117.82 21.6172C117.82 22.5495 117.682 23.3594 117.406 24.0469C117.135 24.7344 116.747 25.2578 116.242 25.6172C115.737 25.9766 115.143 26.1562 114.461 26.1562ZM113.758 19.0078C113.169 19.0078 112.74 19.1901 112.469 19.5547C112.198 19.9141 112.057 20.5104 112.047 21.3438V21.6016C112.047 22.5391 112.185 23.2109 112.461 23.6172C112.742 24.0234 113.185 24.2266 113.789 24.2266C114.857 24.2266 115.391 23.3464 115.391 21.5859C115.391 20.7266 115.258 20.0833 114.992 19.6562C114.732 19.224 114.32 19.0078 113.758 19.0078ZM127.016 17.2656V19.0547H124.156V26H121.773V19.0547H118.906V17.2656H127.016ZM130.547 21.6172C130.547 22.4818 130.688 23.1354 130.969 23.5781C131.255 24.0208 131.719 24.2422 132.359 24.2422C132.995 24.2422 133.451 24.0234 133.727 23.5859C134.008 23.1432 134.148 22.487 134.148 21.6172C134.148 20.7526 134.008 20.1042 133.727 19.6719C133.445 19.2396 132.984 19.0234 132.344 19.0234C131.708 19.0234 131.25 19.2396 130.969 19.6719C130.688 20.099 130.547 20.7474 130.547 21.6172ZM136.586 21.6172C136.586 23.0391 136.211 24.151 135.461 24.9531C134.711 25.7552 133.667 26.1562 132.328 26.1562C131.49 26.1562 130.75 25.974 130.109 25.6094C129.469 25.2396 128.977 24.7109 128.633 24.0234C128.289 23.3359 128.117 22.5339 128.117 21.6172C128.117 20.1901 128.49 19.0807 129.234 18.2891C129.979 17.4974 131.026 17.1016 132.375 17.1016C133.214 17.1016 133.953 17.2839 134.594 17.6484C135.234 18.013 135.727 18.5365 136.07 19.2188C136.414 19.901 136.586 20.7005 136.586 21.6172ZM144.281 17.2656H146.906L143.445 21.4531L147.211 26H144.508L140.938 21.5703V26H138.555V17.2656H140.938V21.5078L144.281 17.2656Z"
              fill="white"/>
    </g>
    <defs>
        <clipPath id="clip0_1805:117779">
            <rect width="123" height="24" fill="white" transform="translate(24.4375 8)"/>
        </clipPath>
    </defs>
</svg>
