<svg width="32" height="12" viewBox="0 0 32 12" fill="none" xmlns="http://www.w3.org/2000/svg">
<path d="M9.13281 12H7.52344L2.24219 6.21094V12H0.914062V0.578125H2.24219V6.10938L7.39062 0.578125H8.91406L3.85938 6.125L9.13281 12ZM11.7344 3.4375V8.86719L11.6797 10.2891L11.6562 10.7344L16.2891 3.4375H17.9062V12H16.6953V6.76562L16.7188 5.73438L16.7578 4.71875L12.1328 12H10.5156V3.4375H11.7344ZM21.9531 12H20.6562V3.4375H21.9531V12ZM19.125 1.11719C19.125 0.846354 19.1927 0.651042 19.3281 0.53125C19.4688 0.411458 19.6354 0.351562 19.8281 0.351562C20.026 0.351562 20.1953 0.411458 20.3359 0.53125C20.4818 0.651042 20.5547 0.846354 20.5547 1.11719C20.5547 1.3776 20.4818 1.57292 20.3359 1.70312C20.1953 1.82812 20.026 1.89062 19.8281 1.89062C19.6354 1.89062 19.4688 1.82812 19.3281 1.70312C19.1927 1.57292 19.125 1.3776 19.125 1.11719ZM22.1016 1.11719C22.1016 0.846354 22.1693 0.651042 22.3047 0.53125C22.4453 0.411458 22.612 0.351562 22.8047 0.351562C22.9974 0.351562 23.1641 0.411458 23.3047 0.53125C23.4505 0.651042 23.5234 0.846354 23.5234 1.11719C23.5234 1.3776 23.4505 1.57292 23.3047 1.70312C23.1641 1.82812 22.9974 1.89062 22.8047 1.89062C22.612 1.89062 22.4453 1.82812 22.3047 1.70312C22.1693 1.57292 22.1016 1.3776 22.1016 1.11719ZM31.6484 5.58594C31.6484 6.14323 31.487 6.56771 31.1641 6.85938C30.8464 7.14583 30.3984 7.33854 29.8203 7.4375V7.50781C30.5495 7.60677 31.0807 7.82031 31.4141 8.14844C31.7526 8.47656 31.9219 8.92969 31.9219 9.50781C31.9219 10.3047 31.6276 10.9193 31.0391 11.3516C30.4557 11.7839 29.6016 12 28.4766 12H24.7031V3.4375H28.4609C30.5859 3.4375 31.6484 4.15365 31.6484 5.58594ZM30.625 9.42188C30.625 8.95833 30.4479 8.6224 30.0938 8.41406C29.7448 8.20052 29.1641 8.09375 28.3516 8.09375H26V10.9141H28.3828C29.8776 10.9141 30.625 10.4167 30.625 9.42188ZM30.3828 5.71094C30.3828 5.29427 30.2214 5 29.8984 4.82812C29.5807 4.65104 29.0964 4.5625 28.4453 4.5625H26V6.97656H28.1953C28.9974 6.97656 29.5625 6.8776 29.8906 6.67969C30.2188 6.48177 30.3828 6.15885 30.3828 5.71094Z" fill="white"/>
</svg>
