<svg width="18" height="22" viewBox="0 0 18 22" fill="none" xmlns="http://www.w3.org/2000/svg">
    <path d="M7.21605 7.78734L7.21555 7.78785C7.01806 7.98477 6.86145 8.2188 6.75474 8.47647C6.64803 8.73414 6.59332 9.01037 6.59375 9.28926L6.59375 9.29004C6.59375 9.85744 6.81478 10.3895 7.21685 10.7935L7.21605 7.78734ZM7.21605 7.78734C7.61898 7.38442 8.15032 7.16504 8.71875 7.16504C9.28718 7.16504 9.81852 7.38442 10.2214 7.78734C10.6244 8.19027 10.8438 8.72161 10.8438 9.29004C10.8438 9.85827 10.6245 10.3894 10.2219 10.7923C9.81792 11.1941 9.28598 11.415 8.71875 11.415L8.71797 11.415M7.21605 7.78734L8.71797 11.415M8.71797 11.415C8.43908 11.4155 8.16285 11.3608 7.90518 11.2541L7.71387 11.716M8.71797 11.415L7.71387 11.716M7.71387 11.716L7.90518 11.254C7.64766 11.1474 7.41374 10.9909 7.21689 10.7936L7.71387 11.716ZM14.5273 3.42356L14.5262 3.42257C13.7743 2.68744 12.8879 2.10397 11.9153 1.70403L11.9139 1.70344C10.902 1.28366 9.82812 1.07129 8.71875 1.07129C7.60943 1.07129 6.53528 1.28365 5.52293 1.70138L14.5273 3.42356ZM14.5273 3.42356C15.2757 4.15105 15.8744 5.01803 16.2897 5.97556C16.7194 6.96732 16.9375 8.01996 16.9375 9.10488C16.9375 10.6802 16.5613 12.2502 15.8102 13.7727L15.8096 13.774C15.208 15.0018 14.3636 16.2086 13.2914 17.3584L13.2912 17.3586C11.4544 19.3303 9.52566 20.5371 8.98734 20.8547L8.98599 20.8555C8.90461 20.9039 8.81295 20.9283 8.71641 20.9283H8.71555C8.62062 20.9285 8.5274 20.9031 8.44567 20.8548L8.44547 20.8547C7.90717 20.5371 5.9785 19.3304 4.14179 17.3588C3.06909 16.2062 2.22465 15.0016 1.62323 13.774C0.876204 12.2484 0.5 10.6756 0.5 9.10254C0.5 8.01766 0.718057 6.96507 1.14778 5.97335C1.56369 5.016 2.16243 4.14901 2.91045 3.42101L2.91053 3.42093M14.5273 3.42356L2.91053 3.42093M2.91053 3.42093C3.66675 2.68461 4.54364 2.10594 5.52276 1.70145L2.91053 3.42093ZM4.09375 9.29004C4.09375 11.8443 6.16448 13.915 8.71875 13.915C11.273 13.915 13.3438 11.8443 13.3438 9.29004C13.3438 6.73577 11.273 4.66504 8.71875 4.66504C6.16448 4.66504 4.09375 6.73577 4.09375 9.29004Z"
          fill="white" stroke="white"/>
</svg>
