<svg width="168" height="17" viewBox="0 0 168 17" fill="none" xmlns="http://www.w3.org/2000/svg">
<path d="M4.96094 8.23438L1.96875 13H0.398438L3.60156 8.00781C2.76302 7.74219 2.15365 7.34115 1.77344 6.80469C1.39323 6.26302 1.20312 5.58073 1.20312 4.75781C1.20312 3.73698 1.55469 2.95312 2.25781 2.40625C2.96615 1.85417 4.03646 1.57812 5.46875 1.57812H8.60938V13H7.28125V8.23438H4.96094ZM7.28125 2.72656H5.50781C4.55469 2.72656 3.83073 2.89062 3.33594 3.21875C2.84115 3.54688 2.59375 4.08073 2.59375 4.82031C2.59375 6.33594 3.58073 7.09375 5.55469 7.09375H7.28125V2.72656ZM16.5547 4.4375H17.9766L14.2812 8.57031L18.2812 13H16.7656L12.8594 8.66406V13H11.5625V4.4375H12.8594V8.60156L16.5547 4.4375ZM21.0938 4.4375V9.86719L21.0391 11.2891L21.0156 11.7344L25.6484 4.4375H27.2656V13H26.0547V7.76562L26.0781 6.73438L26.1172 5.71875L21.4922 13H19.875V4.4375H21.0938ZM31.2344 4.4375V9.86719L31.1797 11.2891L31.1562 11.7344L35.7891 4.4375H37.4062V13H36.1953V7.76562L36.2188 6.73438L36.2578 5.71875L31.6328 13H30.0156V4.4375H31.2344ZM33.6797 3.30469C32.7161 3.30469 32.013 3.11979 31.5703 2.75C31.1276 2.375 30.8802 1.76042 30.8281 0.90625H32.0469C32.0938 1.44792 32.2344 1.82552 32.4688 2.03906C32.7083 2.2526 33.1224 2.35938 33.7109 2.35938C34.2474 2.35938 34.6432 2.24479 34.8984 2.01562C35.1589 1.78646 35.3177 1.41667 35.375 0.90625H36.6016C36.5391 1.72917 36.276 2.33594 35.8125 2.72656C35.349 3.11198 34.638 3.30469 33.6797 3.30469ZM49.4688 5.54688H45.6094V13H44.3125V4.4375H49.4688V5.54688ZM49.8125 4.4375H51.2031L53.0781 9.32031C53.4896 10.4349 53.7448 11.2396 53.8438 11.7344H53.9062C53.974 11.4688 54.1146 11.0156 54.3281 10.375C54.5469 9.72917 55.2552 7.75 56.4531 4.4375H57.8438L54.1641 14.1875C53.7995 15.151 53.3724 15.8333 52.8828 16.2344C52.3984 16.6406 51.8021 16.8438 51.0938 16.8438C50.6979 16.8438 50.3073 16.7995 49.9219 16.7109V15.6719C50.2083 15.7344 50.5286 15.7656 50.8828 15.7656C51.7734 15.7656 52.4089 15.2656 52.7891 14.2656L53.2656 13.0469L49.8125 4.4375ZM63.2188 13.1562C62.6615 13.1562 62.151 13.0547 61.6875 12.8516C61.2292 12.6432 60.8438 12.3255 60.5312 11.8984H60.4375C60.5 12.3984 60.5312 12.8724 60.5312 13.3203V16.8438H59.2344V4.4375H60.2891L60.4688 5.60938H60.5312C60.8646 5.14062 61.2526 4.80208 61.6953 4.59375C62.138 4.38542 62.6458 4.28125 63.2188 4.28125C64.3542 4.28125 65.2292 4.66927 65.8438 5.44531C66.4635 6.22135 66.7734 7.3099 66.7734 8.71094C66.7734 10.1172 66.4583 11.2109 65.8281 11.9922C65.2031 12.7682 64.3333 13.1562 63.2188 13.1562ZM63.0312 5.38281C62.1562 5.38281 61.5234 5.625 61.1328 6.10938C60.7422 6.59375 60.5417 7.36458 60.5312 8.42188V8.71094C60.5312 9.91406 60.7318 10.776 61.1328 11.2969C61.5339 11.8125 62.1771 12.0703 63.0625 12.0703C63.8021 12.0703 64.3802 11.7708 64.7969 11.1719C65.2188 10.5729 65.4297 9.7474 65.4297 8.69531C65.4297 7.6276 65.2188 6.8099 64.7969 6.24219C64.3802 5.66927 63.7917 5.38281 63.0312 5.38281ZM74.8203 5.54688H72.0391V13H70.7422V5.54688H67.9922V4.4375H74.8203V5.54688ZM83.9062 8.71094C83.9062 10.1068 83.5547 11.1979 82.8516 11.9844C82.1484 12.7656 81.1771 13.1562 79.9375 13.1562C79.1719 13.1562 78.4922 12.9766 77.8984 12.6172C77.3047 12.2578 76.8464 11.7422 76.5234 11.0703C76.2005 10.3984 76.0391 9.61198 76.0391 8.71094C76.0391 7.3151 76.388 6.22917 77.0859 5.45312C77.7839 4.67188 78.7526 4.28125 79.9922 4.28125C81.1901 4.28125 82.1406 4.67969 82.8438 5.47656C83.5521 6.27344 83.9062 7.35156 83.9062 8.71094ZM77.3828 8.71094C77.3828 9.80469 77.6016 10.638 78.0391 11.2109C78.4766 11.7839 79.1198 12.0703 79.9688 12.0703C80.8177 12.0703 81.4609 11.7865 81.8984 11.2188C82.3411 10.6458 82.5625 9.8099 82.5625 8.71094C82.5625 7.6224 82.3411 6.79688 81.8984 6.23438C81.4609 5.66667 80.8125 5.38281 79.9531 5.38281C79.1042 5.38281 78.4635 5.66146 78.0312 6.21875C77.599 6.77604 77.3828 7.60677 77.3828 8.71094ZM91.1797 4.4375H92.6016L88.9062 8.57031L92.9062 13H91.3906L87.4844 8.66406V13H86.1875V4.4375H87.4844V8.60156L91.1797 4.4375ZM105.039 11.8828H108.836V4.4375H110.148V13H98.6562V4.4375H99.9531V11.8828H103.742V4.4375H105.039V11.8828ZM111.547 4.4375H112.938L114.812 9.32031C115.224 10.4349 115.479 11.2396 115.578 11.7344H115.641C115.708 11.4688 115.849 11.0156 116.062 10.375C116.281 9.72917 116.99 7.75 118.188 4.4375H119.578L115.898 14.1875C115.534 15.151 115.107 15.8333 114.617 16.2344C114.133 16.6406 113.536 16.8438 112.828 16.8438C112.432 16.8438 112.042 16.7995 111.656 16.7109V15.6719C111.943 15.7344 112.263 15.7656 112.617 15.7656C113.508 15.7656 114.143 15.2656 114.523 14.2656L115 13.0469L111.547 4.4375ZM125.961 4.4375H127.383L123.688 8.57031L127.688 13H126.172L122.266 8.66406V13H120.969V4.4375H122.266V8.60156L125.961 4.4375ZM134.547 13L134.289 11.7812H134.227C133.799 12.3177 133.372 12.6823 132.945 12.875C132.523 13.0625 131.995 13.1562 131.359 13.1562C130.51 13.1562 129.844 12.9375 129.359 12.5C128.88 12.0625 128.641 11.4401 128.641 10.6328C128.641 8.90365 130.023 7.9974 132.789 7.91406L134.242 7.86719V7.33594C134.242 6.66406 134.096 6.16927 133.805 5.85156C133.518 5.52865 133.057 5.36719 132.422 5.36719C131.708 5.36719 130.901 5.58594 130 6.02344L129.602 5.03125C130.023 4.80208 130.484 4.6224 130.984 4.49219C131.49 4.36198 131.995 4.29688 132.5 4.29688C133.521 4.29688 134.276 4.52344 134.766 4.97656C135.26 5.42969 135.508 6.15625 135.508 7.15625V13H134.547ZM131.617 12.0859C132.424 12.0859 133.057 11.8646 133.516 11.4219C133.979 10.9792 134.211 10.3594 134.211 9.5625V8.78906L132.914 8.84375C131.883 8.88021 131.138 9.04167 130.68 9.32812C130.227 9.60938 130 10.0495 130 10.6484C130 11.1172 130.141 11.474 130.422 11.7188C130.708 11.9635 131.107 12.0859 131.617 12.0859ZM141.758 13.1562C140.466 13.1562 139.469 12.7786 138.766 12.0234C138.062 11.263 137.711 10.1745 137.711 8.75781C137.711 7.32552 138.068 6.22135 138.781 5.44531C139.5 4.66927 140.513 4.28125 141.82 4.28125C142.247 4.28125 142.667 4.32292 143.078 4.40625C143.49 4.48958 143.844 4.59635 144.141 4.72656L143.758 5.82812C143.013 5.5625 142.357 5.42969 141.789 5.42969C140.935 5.42969 140.286 5.64323 139.844 6.07031C139.401 6.49219 139.138 7.14323 139.055 8.02344H143.375V9.125H139.039C139.086 10.1146 139.331 10.8464 139.773 11.3203C140.216 11.7891 140.872 12.0234 141.742 12.0234C142.471 12.0234 143.229 11.8698 144.016 11.5625V12.7109C143.411 13.0078 142.659 13.1562 141.758 13.1562ZM151.836 5.54688H149.055V13H147.758V5.54688H145.008V4.4375H151.836V5.54688ZM157.148 13.1562C155.883 13.1562 154.883 12.7708 154.148 12C153.419 11.2292 153.055 10.1589 153.055 8.78906C153.055 7.40885 153.393 6.3125 154.07 5.5C154.753 4.6875 155.667 4.28125 156.812 4.28125C157.885 4.28125 158.734 4.63542 159.359 5.34375C159.984 6.04688 160.297 6.97656 160.297 8.13281V8.95312H154.398C154.424 9.95833 154.677 10.7214 155.156 11.2422C155.641 11.763 156.32 12.0234 157.195 12.0234C158.117 12.0234 159.029 11.8307 159.93 11.4453V12.6016C159.471 12.7995 159.036 12.9401 158.625 13.0234C158.219 13.112 157.727 13.1562 157.148 13.1562ZM156.797 5.36719C156.109 5.36719 155.56 5.59115 155.148 6.03906C154.742 6.48698 154.503 7.10677 154.43 7.89844H158.906C158.906 7.08073 158.724 6.45573 158.359 6.02344C157.995 5.58594 157.474 5.36719 156.797 5.36719ZM163.398 9.85156V9.42969C163.398 8.82031 163.492 8.32031 163.68 7.92969C163.867 7.53385 164.216 7.11719 164.727 6.67969C165.435 6.08073 165.88 5.63021 166.062 5.32812C166.25 5.02604 166.344 4.66146 166.344 4.23438C166.344 3.70312 166.172 3.29427 165.828 3.00781C165.49 2.71615 165 2.57031 164.359 2.57031C163.948 2.57031 163.547 2.61979 163.156 2.71875C162.766 2.8125 162.318 2.98698 161.812 3.24219L161.352 2.1875C162.336 1.67188 163.365 1.41406 164.438 1.41406C165.432 1.41406 166.206 1.65885 166.758 2.14844C167.31 2.63802 167.586 3.32812 167.586 4.21875C167.586 4.59896 167.534 4.9349 167.43 5.22656C167.331 5.51302 167.182 5.78646 166.984 6.04688C166.786 6.30208 166.359 6.71615 165.703 7.28906C165.177 7.73698 164.828 8.10938 164.656 8.40625C164.49 8.70312 164.406 9.09896 164.406 9.59375V9.85156H163.398ZM163.016 12.1719C163.016 11.4635 163.328 11.1094 163.953 11.1094C164.255 11.1094 164.487 11.2005 164.648 11.3828C164.815 11.5651 164.898 11.8281 164.898 12.1719C164.898 12.5052 164.815 12.7656 164.648 12.9531C164.482 13.1354 164.25 13.2266 163.953 13.2266C163.682 13.2266 163.458 13.1458 163.281 12.9844C163.104 12.8177 163.016 12.5469 163.016 12.1719Z" fill="white"/>
</svg>
