<svg width="156" height="15" viewBox="0 0 156 15" fill="none" xmlns="http://www.w3.org/2000/svg">
<path d="M8.33398 11H6.22168V2.76953H2.54395V11H0.424805V1.00586H8.33398V11ZM12.3535 7.16504C12.3535 7.92155 12.4766 8.49349 12.7227 8.88086C12.9733 9.26823 13.3789 9.46191 13.9395 9.46191C14.4954 9.46191 14.8942 9.27051 15.1357 8.8877C15.3818 8.50033 15.5049 7.92611 15.5049 7.16504C15.5049 6.40853 15.3818 5.84115 15.1357 5.46289C14.8896 5.08464 14.4863 4.89551 13.9258 4.89551C13.3698 4.89551 12.9688 5.08464 12.7227 5.46289C12.4766 5.83659 12.3535 6.40397 12.3535 7.16504ZM17.6377 7.16504C17.6377 8.40918 17.3096 9.38216 16.6533 10.084C15.9971 10.7858 15.0833 11.1367 13.9121 11.1367C13.1784 11.1367 12.5312 10.9772 11.9707 10.6582C11.4102 10.3346 10.9795 9.87207 10.6787 9.27051C10.3779 8.66895 10.2275 7.96712 10.2275 7.16504C10.2275 5.91634 10.5534 4.94564 11.2051 4.25293C11.8568 3.56022 12.7728 3.21387 13.9531 3.21387C14.6868 3.21387 15.334 3.37337 15.8945 3.69238C16.4551 4.01139 16.8857 4.4694 17.1865 5.06641C17.4873 5.66341 17.6377 6.36296 17.6377 7.16504ZM22.4639 11.1367C20.085 11.1367 18.8955 9.83105 18.8955 7.21973C18.8955 5.9209 19.2191 4.92969 19.8662 4.24609C20.5133 3.55794 21.4408 3.21387 22.6484 3.21387C23.5326 3.21387 24.3255 3.38704 25.0273 3.7334L24.4121 5.34668C24.084 5.21452 23.7786 5.10742 23.4961 5.02539C23.2135 4.9388 22.931 4.89551 22.6484 4.89551C21.5638 4.89551 21.0215 5.66569 21.0215 7.20605C21.0215 8.70085 21.5638 9.44824 22.6484 9.44824C23.0495 9.44824 23.4209 9.39583 23.7627 9.29102C24.1045 9.18164 24.4463 9.01302 24.7881 8.78516V10.5693C24.4508 10.7835 24.109 10.9316 23.7627 11.0137C23.4209 11.0957 22.988 11.1367 22.4639 11.1367ZM33.4082 11H31.3232V4.92285H29.4023C29.2565 6.63184 29.0788 7.90788 28.8691 8.75098C28.6595 9.58952 28.3792 10.1979 28.0283 10.5762C27.682 10.9499 27.2262 11.1367 26.6611 11.1367C26.1781 11.1367 25.7816 11.0638 25.4717 10.918V9.25C25.695 9.34115 25.9183 9.38672 26.1416 9.38672C26.4014 9.38672 26.6178 9.19987 26.791 8.82617C26.9688 8.45247 27.126 7.8304 27.2627 6.95996C27.404 6.08496 27.5247 4.88411 27.625 3.35742H33.4082V11ZM34.5088 3.35742H36.792L38.2344 7.65723C38.3574 8.03092 38.4417 8.47298 38.4873 8.9834H38.5283C38.5785 8.514 38.6764 8.07194 38.8223 7.65723L40.2373 3.35742H42.4727L39.2393 11.9775C38.943 12.7751 38.5192 13.3721 37.9678 13.7686C37.4209 14.165 36.7806 14.3633 36.0469 14.3633C35.6868 14.3633 35.3337 14.3245 34.9873 14.2471V12.5928C35.238 12.652 35.5114 12.6816 35.8076 12.6816C36.1768 12.6816 36.498 12.5677 36.7715 12.3398C37.0495 12.1165 37.266 11.777 37.4209 11.3213L37.5439 10.9453L34.5088 3.35742ZM48.8506 3.35742V4.92285H45.6582V11H43.5732V3.35742H48.8506ZM52.2891 3.35742V6.37891C52.2891 6.69792 52.2367 7.47721 52.1318 8.7168L55.6592 3.35742H58.168V11H56.1514V7.95117C56.1514 7.40885 56.1969 6.64323 56.2881 5.6543L52.7744 11H50.2725V3.35742H52.2891ZM62.9053 3.35742H65.1885L66.6309 7.65723C66.7539 8.03092 66.8382 8.47298 66.8838 8.9834H66.9248C66.9749 8.514 67.0729 8.07194 67.2188 7.65723L68.6338 3.35742H70.8691L67.6357 11.9775C67.3395 12.7751 66.9157 13.3721 66.3643 13.7686C65.8174 14.165 65.1771 14.3633 64.4434 14.3633C64.0833 14.3633 63.7301 14.3245 63.3838 14.2471V12.5928C63.6344 12.652 63.9079 12.6816 64.2041 12.6816C64.5732 12.6816 64.8945 12.5677 65.168 12.3398C65.446 12.1165 65.6624 11.777 65.8174 11.3213L65.9404 10.9453L62.9053 3.35742ZM76.9805 3.35742H79.2773L76.249 7.02148L79.5439 11H77.1787L74.0547 7.12402V11H71.9697V3.35742H74.0547V7.06934L76.9805 3.35742ZM84.835 11.1367C83.9372 11.1367 83.2331 10.8109 82.7227 10.1592H82.6133C82.6862 10.7972 82.7227 11.1663 82.7227 11.2666V14.3633H80.6377V3.35742H82.333L82.627 4.34863H82.7227C83.2103 3.59212 83.9326 3.21387 84.8896 3.21387C85.792 3.21387 86.4984 3.5625 87.0088 4.25977C87.5192 4.95703 87.7744 5.92546 87.7744 7.16504C87.7744 7.98079 87.6536 8.68945 87.4121 9.29102C87.1751 9.89258 86.8356 10.3506 86.3936 10.665C85.9515 10.9795 85.432 11.1367 84.835 11.1367ZM84.2197 4.88184C83.7048 4.88184 83.3288 5.04134 83.0918 5.36035C82.8548 5.6748 82.7318 6.19661 82.7227 6.92578V7.15137C82.7227 7.97168 82.8434 8.55957 83.085 8.91504C83.3311 9.27051 83.7184 9.44824 84.2471 9.44824C85.1813 9.44824 85.6484 8.67806 85.6484 7.1377C85.6484 6.38574 85.5322 5.82292 85.2998 5.44922C85.0719 5.07096 84.7119 4.88184 84.2197 4.88184ZM94.3506 11L93.9473 9.96094H93.8926C93.5417 10.403 93.1794 10.7106 92.8057 10.8838C92.4365 11.0524 91.9535 11.1367 91.3564 11.1367C90.6227 11.1367 90.0439 10.9271 89.6201 10.5078C89.2008 10.0885 88.9912 9.49154 88.9912 8.7168C88.9912 7.9056 89.2738 7.30859 89.8389 6.92578C90.4085 6.53841 91.2653 6.32422 92.4092 6.2832L93.7354 6.24219V5.90723C93.7354 5.13249 93.3389 4.74512 92.5459 4.74512C91.9352 4.74512 91.2174 4.92969 90.3926 5.29883L89.7021 3.89062C90.5817 3.43034 91.557 3.2002 92.6279 3.2002C93.6533 3.2002 94.4395 3.4235 94.9863 3.87012C95.5332 4.31673 95.8066 4.99577 95.8066 5.90723V11H94.3506ZM93.7354 7.45898L92.9287 7.48633C92.3226 7.50456 91.8714 7.61393 91.5752 7.81445C91.279 8.01497 91.1309 8.32031 91.1309 8.73047C91.1309 9.31836 91.4681 9.6123 92.1426 9.6123C92.6257 9.6123 93.0107 9.47331 93.2979 9.19531C93.5895 8.91732 93.7354 8.54818 93.7354 8.08789V7.45898ZM100.045 11H97.96V3.35742H100.045V11ZM96.6816 1.39551C96.6816 1.09928 96.766 0.871419 96.9346 0.711914C97.1077 0.552409 97.3402 0.472656 97.6318 0.472656C97.9326 0.472656 98.1673 0.556966 98.3359 0.725586C98.5091 0.894206 98.5957 1.11751 98.5957 1.39551C98.5957 1.66895 98.5091 1.88997 98.3359 2.05859C98.1628 2.22266 97.9281 2.30469 97.6318 2.30469C97.3402 2.30469 97.1077 2.22493 96.9346 2.06543C96.766 1.90592 96.6816 1.68262 96.6816 1.39551ZM99.4365 1.39551C99.4365 1.0765 99.5277 0.844076 99.71 0.698242C99.8968 0.547852 100.127 0.472656 100.4 0.472656C100.697 0.472656 100.931 0.554688 101.104 0.71875C101.282 0.882812 101.371 1.1084 101.371 1.39551C101.371 1.6735 101.282 1.89453 101.104 2.05859C100.927 2.22266 100.692 2.30469 100.4 2.30469C100.127 2.30469 99.8968 2.23177 99.71 2.08594C99.5277 1.93555 99.4365 1.7054 99.4365 1.39551ZM104.324 3.35742V6.29688H107.236V3.35742H109.321V11H107.236V7.84863H104.324V11H102.239V3.35742H104.324ZM114.612 11.1367C112.233 11.1367 111.044 9.83105 111.044 7.21973C111.044 5.9209 111.368 4.92969 112.015 4.24609C112.662 3.55794 113.589 3.21387 114.797 3.21387C115.681 3.21387 116.474 3.38704 117.176 3.7334L116.561 5.34668C116.232 5.21452 115.927 5.10742 115.645 5.02539C115.362 4.9388 115.079 4.89551 114.797 4.89551C113.712 4.89551 113.17 5.66569 113.17 7.20605C113.17 8.70085 113.712 9.44824 114.797 9.44824C115.198 9.44824 115.569 9.39583 115.911 9.29102C116.253 9.18164 116.595 9.01302 116.937 8.78516V10.5693C116.599 10.7835 116.257 10.9316 115.911 11.0137C115.569 11.0957 115.136 11.1367 114.612 11.1367ZM120.799 6.31055H122.269C123.444 6.31055 124.315 6.4974 124.88 6.87109C125.445 7.24479 125.728 7.8099 125.728 8.56641C125.728 10.1888 124.602 11 122.351 11H118.714V3.35742H120.799V6.31055ZM123.643 8.59375C123.643 8.29753 123.524 8.08333 123.287 7.95117C123.05 7.81901 122.697 7.75293 122.228 7.75293H120.799V9.55762H122.255C123.18 9.55762 123.643 9.23633 123.643 8.59375ZM132.324 3.35742H134.621L131.593 7.02148L134.888 11H132.522L129.398 7.12402V11H127.313V3.35742H129.398V7.06934L132.324 3.35742ZM137.643 7.16504C137.643 7.92155 137.766 8.49349 138.012 8.88086C138.262 9.26823 138.668 9.46191 139.229 9.46191C139.785 9.46191 140.183 9.27051 140.425 8.8877C140.671 8.50033 140.794 7.92611 140.794 7.16504C140.794 6.40853 140.671 5.84115 140.425 5.46289C140.179 5.08464 139.775 4.89551 139.215 4.89551C138.659 4.89551 138.258 5.08464 138.012 5.46289C137.766 5.83659 137.643 6.40397 137.643 7.16504ZM142.927 7.16504C142.927 8.40918 142.599 9.38216 141.942 10.084C141.286 10.7858 140.372 11.1367 139.201 11.1367C138.467 11.1367 137.82 10.9772 137.26 10.6582C136.699 10.3346 136.269 9.87207 135.968 9.27051C135.667 8.66895 135.517 7.96712 135.517 7.16504C135.517 5.91634 135.842 4.94564 136.494 4.25293C137.146 3.56022 138.062 3.21387 139.242 3.21387C139.976 3.21387 140.623 3.37337 141.184 3.69238C141.744 4.01139 142.175 4.4694 142.476 5.06641C142.776 5.66341 142.927 6.36296 142.927 7.16504ZM155.204 7.16504C155.204 8.41829 154.887 9.39355 154.254 10.0908C153.62 10.7881 152.743 11.1367 151.622 11.1367C150.615 11.1367 149.808 10.8542 149.202 10.2891C148.601 9.72396 148.236 8.91048 148.108 7.84863H146.734V11H144.649V3.35742H146.734V6.29688H148.136C148.268 5.32161 148.644 4.5651 149.264 4.02734C149.888 3.48503 150.688 3.21387 151.663 3.21387C152.743 3.21387 153.602 3.56934 154.24 4.28027C154.883 4.98665 155.204 5.94824 155.204 7.16504ZM150.207 7.16504C150.207 7.92611 150.319 8.50033 150.542 8.8877C150.765 9.27051 151.134 9.46191 151.649 9.46191C152.155 9.46191 152.52 9.27051 152.743 8.8877C152.966 8.50033 153.078 7.92611 153.078 7.16504C153.078 6.40397 152.964 5.83659 152.736 5.46289C152.513 5.08464 152.146 4.89551 151.636 4.89551C151.13 4.89551 150.765 5.08464 150.542 5.46289C150.319 5.84115 150.207 6.40853 150.207 7.16504Z" fill="white"/>
</svg>
