<svg width="20" height="20" viewBox="0 0 20 20" fill="none" xmlns="http://www.w3.org/2000/svg">
    <mask id="path-1-inside-1_6049:293" fill="white">
        <path d="M18.625 0.625H1.375C0.960156 0.625 0.625 0.960156 0.625 1.375V18.625C0.625 19.0398 0.960156 19.375 1.375 19.375H18.625C19.0398 19.375 19.375 19.0398 19.375 18.625V1.375C19.375 0.960156 19.0398 0.625 18.625 0.625ZM17.6875 17.6875H2.3125V2.3125H17.6875V17.6875ZM5.96875 14.0078V15.8125C5.96875 15.9156 6.05312 16 6.15625 16H7.28125C7.38438 16 7.46875 15.9156 7.46875 15.8125V14.0078C7.23203 14.0852 6.98125 14.125 6.71875 14.125C6.45625 14.125 6.20547 14.0828 5.96875 14.0078ZM7.46875 9.36719V4.1875C7.46875 4.08437 7.38438 4 7.28125 4H6.15625C6.05312 4 5.96875 4.08437 5.96875 4.1875V9.36719C6.20547 9.28984 6.45625 9.25 6.71875 9.25C6.98125 9.25 7.23203 9.29219 7.46875 9.36719ZM5.96875 14.0078C6.20547 14.0852 6.45625 14.125 6.71875 14.125C6.98125 14.125 7.23203 14.0828 7.46875 14.0078C8.44844 13.6914 9.15625 12.7727 9.15625 11.6875C9.15625 10.6023 8.44844 9.68359 7.46875 9.36719C7.23203 9.28984 6.98125 9.25 6.71875 9.25C6.45625 9.25 6.20547 9.29219 5.96875 9.36719C4.98906 9.68359 4.28125 10.6023 4.28125 11.6875C4.28125 12.7727 4.98906 13.6914 5.96875 14.0078ZM5.97109 11.2961C5.97813 11.282 5.9875 11.268 5.99453 11.2539V11.2516L6.02266 11.2094C6.025 11.2047 6.02734 11.2023 6.02969 11.1977C6.03672 11.1859 6.04609 11.1766 6.05313 11.1648C6.05547 11.1625 6.05781 11.1578 6.06016 11.1555C6.07187 11.1414 6.08125 11.1297 6.09297 11.118L6.1 11.1109L6.12812 11.0828L6.1375 11.0734C6.14922 11.0617 6.16094 11.0523 6.175 11.0406C6.18906 11.0289 6.20078 11.0195 6.21484 11.0102C6.21953 11.0078 6.22188 11.0055 6.22656 11.0031C6.23828 10.9961 6.24766 10.9867 6.25937 10.9797C6.26172 10.9773 6.26641 10.975 6.26875 10.9727C6.28281 10.9633 6.29688 10.9563 6.31328 10.9469C6.31563 10.9445 6.32031 10.9445 6.32266 10.9422C6.33438 10.9352 6.34609 10.9305 6.36016 10.9234L6.37422 10.9164C6.39062 10.9094 6.40469 10.9023 6.42109 10.8977C6.4375 10.8906 6.45391 10.8859 6.47031 10.8812C6.475 10.8789 6.47969 10.8789 6.48438 10.8766C6.49844 10.8719 6.51016 10.8695 6.52422 10.8672C6.52891 10.8672 6.53125 10.8648 6.53594 10.8648C6.55234 10.8602 6.57109 10.8578 6.5875 10.8555C6.59219 10.8555 6.59453 10.8555 6.59922 10.8531C6.61328 10.8508 6.62734 10.8508 6.64141 10.8484H6.65547C6.67422 10.8484 6.69063 10.8461 6.70938 10.8461C6.72813 10.8461 6.74453 10.8461 6.76328 10.8484H6.77734C6.79141 10.8484 6.80547 10.8508 6.81953 10.8531C6.82422 10.8531 6.82656 10.8531 6.83125 10.8555C6.84766 10.8578 6.86641 10.8602 6.88281 10.8648C6.8875 10.8648 6.88984 10.8672 6.89453 10.8672C6.90859 10.8695 6.92266 10.8742 6.93438 10.8766C6.93906 10.8789 6.94375 10.8789 6.94844 10.8812C6.96484 10.8859 6.98125 10.8906 6.99766 10.8977C7.01406 10.9023 7.02812 10.9094 7.04453 10.9164L7.05859 10.9234C7.07031 10.9281 7.08438 10.9352 7.09609 10.9422C7.09844 10.9445 7.10313 10.9445 7.10547 10.9469C7.11953 10.9539 7.13594 10.9633 7.15 10.9727C7.15234 10.975 7.15703 10.9773 7.15937 10.9797C7.17109 10.9867 7.18281 10.9937 7.19219 11.0031C7.19688 11.0055 7.19922 11.0078 7.20391 11.0102C7.21797 11.0195 7.23203 11.0313 7.24375 11.0406C7.25547 11.05 7.26953 11.0617 7.28125 11.0734L7.29062 11.0828L7.31875 11.1109L7.32578 11.118C7.3375 11.1297 7.34922 11.1437 7.35859 11.1555C7.36094 11.1578 7.36328 11.1625 7.36563 11.1648C7.375 11.1742 7.38203 11.1859 7.38906 11.1977C7.39141 11.2023 7.39375 11.2047 7.39609 11.2094L7.42422 11.2516C7.42422 11.2516 7.42422 11.2539 7.42656 11.2539C7.50471 11.385 7.546 11.5348 7.54609 11.6875C7.54609 11.8281 7.51094 11.9617 7.45 12.0789C7.44297 12.093 7.43359 12.107 7.42656 12.1211C7.42656 12.1211 7.42656 12.1234 7.42422 12.1234L7.39609 12.1656C7.39375 12.1703 7.39141 12.1727 7.38906 12.1773C7.38203 12.1891 7.37266 12.1984 7.36563 12.2102C7.36328 12.2125 7.36094 12.2172 7.35859 12.2195C7.34687 12.2336 7.3375 12.2453 7.32578 12.257L7.31875 12.2641L7.29062 12.2922L7.28125 12.3016C7.26953 12.3133 7.25781 12.3227 7.24375 12.3344C7.22969 12.3461 7.21797 12.3555 7.20391 12.3648C7.19922 12.3672 7.19688 12.3695 7.19219 12.3719C7.18047 12.3789 7.17109 12.3883 7.15937 12.3953C7.15703 12.3977 7.15234 12.4 7.15 12.4023C7.13594 12.4117 7.12187 12.4187 7.10547 12.4281C7.10313 12.4305 7.09844 12.4305 7.09609 12.4328C7.08438 12.4398 7.07266 12.4445 7.05859 12.4516L7.04453 12.4586C7.02812 12.4656 7.01406 12.4727 6.99766 12.4773C6.98125 12.4844 6.96484 12.4891 6.94844 12.4938C6.94375 12.4961 6.93906 12.4961 6.93438 12.4984C6.92031 12.5031 6.90859 12.5055 6.89453 12.5078C6.88984 12.5078 6.8875 12.5102 6.88281 12.5102C6.86641 12.5148 6.84766 12.5172 6.83125 12.5195C6.82656 12.5195 6.82422 12.5195 6.81953 12.5219C6.80547 12.5242 6.79141 12.5242 6.77734 12.5266H6.76328C6.74453 12.5266 6.72813 12.5289 6.70938 12.5289C6.69063 12.5289 6.67422 12.5289 6.65547 12.5266H6.64141C6.62734 12.5266 6.61328 12.5242 6.59922 12.5219C6.59453 12.5219 6.59219 12.5219 6.5875 12.5195C6.57109 12.5172 6.55234 12.5148 6.53594 12.5102C6.53125 12.5102 6.52891 12.5078 6.52422 12.5078C6.51016 12.5055 6.49609 12.5008 6.48438 12.4984C6.47969 12.4961 6.475 12.4961 6.47031 12.4938C6.45391 12.4891 6.4375 12.4844 6.42109 12.4773C6.40469 12.4727 6.39062 12.4656 6.37422 12.4586L6.36016 12.4516C6.34844 12.4469 6.33438 12.4398 6.32266 12.4328C6.32031 12.4305 6.31563 12.4305 6.31328 12.4281C6.29922 12.4211 6.28281 12.4117 6.26875 12.4023C6.26641 12.4 6.26172 12.3977 6.25937 12.3953C6.24766 12.3883 6.23594 12.3813 6.22656 12.3719C6.22188 12.3695 6.21953 12.3672 6.21484 12.3648C6.20078 12.3555 6.18672 12.3437 6.175 12.3344C6.16328 12.325 6.14922 12.3133 6.1375 12.3016L6.12812 12.2922L6.1 12.2641L6.09297 12.257C6.08125 12.2453 6.06953 12.2313 6.06016 12.2195C6.05781 12.2172 6.05547 12.2125 6.05313 12.2102C6.04375 12.2008 6.03672 12.1891 6.02969 12.1773C6.02734 12.1727 6.025 12.1703 6.02266 12.1656L5.99453 12.1234V12.1211C5.98516 12.107 5.97813 12.093 5.97109 12.0789C5.91016 11.9617 5.875 11.8281 5.875 11.6875C5.875 11.5469 5.91016 11.4133 5.97109 11.2961ZM12.5312 10.6328V15.8125C12.5312 15.9156 12.6156 16 12.7188 16H13.8438C13.9469 16 14.0312 15.9156 14.0312 15.8125V10.6328C13.7945 10.7102 13.5437 10.75 13.2812 10.75C13.0188 10.75 12.768 10.7078 12.5312 10.6328ZM14.0312 5.99219V4.1875C14.0312 4.08437 13.9469 4 13.8438 4H12.7188C12.6156 4 12.5312 4.08437 12.5312 4.1875V5.99219C12.768 5.91484 13.0188 5.875 13.2812 5.875C13.5437 5.875 13.7945 5.91719 14.0312 5.99219ZM12.5312 10.6328C12.768 10.7102 13.0188 10.75 13.2812 10.75C13.5437 10.75 13.7945 10.7078 14.0312 10.6328C15.0109 10.3164 15.7188 9.39766 15.7188 8.3125C15.7188 7.22734 15.0109 6.30859 14.0312 5.99219C13.7945 5.91484 13.5437 5.875 13.2812 5.875C13.0188 5.875 12.768 5.91719 12.5312 5.99219C11.5516 6.30859 10.8438 7.22734 10.8438 8.3125C10.8438 9.39766 11.5516 10.3164 12.5312 10.6328ZM12.5336 7.92109C12.5406 7.90703 12.55 7.89297 12.557 7.87891V7.87656L12.5852 7.83438C12.5875 7.82969 12.5898 7.82734 12.5922 7.82266C12.5992 7.81094 12.6086 7.80156 12.6156 7.78984C12.618 7.7875 12.6203 7.78281 12.6227 7.78047C12.6344 7.76641 12.6437 7.75469 12.6555 7.74297L12.6625 7.73594L12.6906 7.70781L12.7 7.69844C12.7117 7.68672 12.7234 7.67734 12.7375 7.66562C12.7516 7.65391 12.7633 7.64453 12.7773 7.63516C12.782 7.63281 12.7844 7.63047 12.7891 7.62812C12.8008 7.62109 12.8102 7.61172 12.8219 7.60469C12.8242 7.60234 12.8289 7.6 12.8312 7.59766C12.8453 7.58828 12.8594 7.58125 12.8758 7.57187C12.8781 7.56953 12.8828 7.56953 12.8852 7.56719C12.8969 7.56016 12.9086 7.55547 12.9227 7.54844L12.9367 7.54141C12.9531 7.53438 12.9672 7.52734 12.9836 7.52266C13 7.51562 13.0164 7.51094 13.0328 7.50625C13.0375 7.50391 13.0422 7.50391 13.0469 7.50156C13.0609 7.49687 13.0727 7.49453 13.0867 7.49219C13.0914 7.49219 13.0938 7.48984 13.0984 7.48984C13.1148 7.48516 13.1336 7.48281 13.15 7.48047C13.1547 7.48047 13.157 7.48047 13.1617 7.47812C13.1758 7.47578 13.1898 7.47578 13.2039 7.47344H13.218C13.2367 7.47344 13.2531 7.47109 13.2719 7.47109C13.2906 7.47109 13.307 7.47109 13.3258 7.47344H13.3398C13.3539 7.47344 13.368 7.47578 13.382 7.47812C13.3867 7.47812 13.3891 7.47813 13.3937 7.48047C13.4102 7.48281 13.4289 7.48516 13.4453 7.48984C13.45 7.48984 13.4523 7.49219 13.457 7.49219C13.4711 7.49453 13.4852 7.49922 13.4969 7.50156C13.5016 7.50391 13.5062 7.50391 13.5109 7.50625C13.5273 7.51094 13.5438 7.51562 13.5602 7.52266C13.5766 7.52734 13.5906 7.53438 13.607 7.54141L13.6211 7.54844C13.6328 7.55312 13.6469 7.56016 13.6586 7.56719C13.6609 7.56953 13.6656 7.56953 13.668 7.57187C13.682 7.57891 13.6984 7.58828 13.7125 7.59766C13.7148 7.6 13.7195 7.60234 13.7219 7.60469C13.7336 7.61172 13.7453 7.61875 13.7547 7.62812C13.7594 7.63047 13.7617 7.63281 13.7664 7.63516C13.7805 7.64453 13.7945 7.65625 13.8063 7.66562C13.818 7.675 13.832 7.68672 13.8438 7.69844L13.8531 7.70781L13.8812 7.73594L13.8883 7.74297C13.9 7.75469 13.9117 7.76875 13.9211 7.78047C13.9234 7.78281 13.9258 7.7875 13.9281 7.78984C13.9375 7.79922 13.9445 7.81094 13.9516 7.82266C13.9539 7.82734 13.9563 7.82969 13.9586 7.83438L13.9867 7.87656V7.87891C14.0649 8.01004 14.1062 8.15984 14.1063 8.3125C14.1063 8.45312 14.0711 8.58672 14.0102 8.70391C14.0031 8.71797 13.9937 8.73203 13.9867 8.74609V8.74844L13.9586 8.79062C13.9563 8.79531 13.9539 8.79766 13.9516 8.80234C13.9445 8.81406 13.9352 8.82344 13.9281 8.83516C13.9258 8.8375 13.9234 8.84219 13.9211 8.84453C13.9094 8.85859 13.9 8.87031 13.8883 8.88203L13.8812 8.88906L13.8531 8.91719L13.8438 8.92656C13.832 8.93828 13.8203 8.94766 13.8063 8.95938C13.7922 8.97109 13.7805 8.98047 13.7664 8.98984C13.7617 8.99219 13.7594 8.99453 13.7547 8.99688C13.743 9.00391 13.7336 9.01328 13.7219 9.02031C13.7195 9.02266 13.7148 9.025 13.7125 9.02734C13.6984 9.03672 13.6844 9.04375 13.668 9.05313C13.6656 9.05547 13.6609 9.05547 13.6586 9.05781C13.6469 9.06484 13.6352 9.06953 13.6211 9.07656L13.607 9.08359C13.5906 9.09062 13.5766 9.09766 13.5602 9.10234C13.5438 9.10938 13.5273 9.11406 13.5109 9.11875C13.5062 9.12109 13.5016 9.12109 13.4969 9.12344C13.4828 9.12813 13.4711 9.13047 13.457 9.13281C13.4523 9.13281 13.45 9.13516 13.4453 9.13516C13.4289 9.13984 13.4102 9.14219 13.3937 9.14453C13.3891 9.14453 13.3867 9.14453 13.382 9.14688C13.368 9.14922 13.3539 9.14922 13.3398 9.15156H13.3258C13.307 9.15156 13.2906 9.15391 13.2719 9.15391C13.2531 9.15391 13.2367 9.15391 13.218 9.15156H13.2039C13.1898 9.15156 13.1758 9.14922 13.1617 9.14688C13.157 9.14688 13.1547 9.14688 13.15 9.14453C13.1336 9.14219 13.1148 9.13984 13.0984 9.13516C13.0938 9.13516 13.0914 9.13281 13.0867 9.13281C13.0727 9.13047 13.0586 9.12578 13.0469 9.12344C13.0422 9.12109 13.0375 9.12109 13.0328 9.11875C13.0164 9.11406 13 9.10938 12.9836 9.10234C12.9672 9.09766 12.9531 9.09062 12.9367 9.08359L12.9227 9.07656C12.9109 9.07188 12.8969 9.06484 12.8852 9.05781C12.8828 9.05547 12.8781 9.05547 12.8758 9.05313C12.8617 9.04609 12.8453 9.03672 12.8312 9.02734C12.8289 9.025 12.8242 9.02266 12.8219 9.02031C12.8102 9.01328 12.7984 9.00625 12.7891 8.99688C12.7844 8.99453 12.782 8.99219 12.7773 8.98984C12.7633 8.98047 12.7492 8.96875 12.7375 8.95938C12.7258 8.95 12.7117 8.93828 12.7 8.92656L12.6906 8.91719L12.6625 8.88906L12.6555 8.88203C12.6437 8.87031 12.632 8.85625 12.6227 8.84453C12.6203 8.84219 12.618 8.8375 12.6156 8.83516C12.6062 8.82578 12.5992 8.81406 12.5922 8.80234C12.5898 8.79766 12.5875 8.79531 12.5852 8.79062L12.557 8.74844V8.74609C12.5477 8.73203 12.5406 8.71797 12.5336 8.70391C12.4727 8.58672 12.4375 8.45312 12.4375 8.3125C12.4375 8.17188 12.4727 8.03828 12.5336 7.92109Z"/>
    </mask>
    <path d="M18.625 0.625H1.375C0.960156 0.625 0.625 0.960156 0.625 1.375V18.625C0.625 19.0398 0.960156 19.375 1.375 19.375H18.625C19.0398 19.375 19.375 19.0398 19.375 18.625V1.375C19.375 0.960156 19.0398 0.625 18.625 0.625ZM17.6875 17.6875H2.3125V2.3125H17.6875V17.6875ZM5.96875 14.0078V15.8125C5.96875 15.9156 6.05312 16 6.15625 16H7.28125C7.38438 16 7.46875 15.9156 7.46875 15.8125V14.0078C7.23203 14.0852 6.98125 14.125 6.71875 14.125C6.45625 14.125 6.20547 14.0828 5.96875 14.0078ZM7.46875 9.36719V4.1875C7.46875 4.08437 7.38438 4 7.28125 4H6.15625C6.05312 4 5.96875 4.08437 5.96875 4.1875V9.36719C6.20547 9.28984 6.45625 9.25 6.71875 9.25C6.98125 9.25 7.23203 9.29219 7.46875 9.36719ZM5.96875 14.0078C6.20547 14.0852 6.45625 14.125 6.71875 14.125C6.98125 14.125 7.23203 14.0828 7.46875 14.0078C8.44844 13.6914 9.15625 12.7727 9.15625 11.6875C9.15625 10.6023 8.44844 9.68359 7.46875 9.36719C7.23203 9.28984 6.98125 9.25 6.71875 9.25C6.45625 9.25 6.20547 9.29219 5.96875 9.36719C4.98906 9.68359 4.28125 10.6023 4.28125 11.6875C4.28125 12.7727 4.98906 13.6914 5.96875 14.0078ZM5.97109 11.2961C5.97813 11.282 5.9875 11.268 5.99453 11.2539V11.2516L6.02266 11.2094C6.025 11.2047 6.02734 11.2023 6.02969 11.1977C6.03672 11.1859 6.04609 11.1766 6.05313 11.1648C6.05547 11.1625 6.05781 11.1578 6.06016 11.1555C6.07187 11.1414 6.08125 11.1297 6.09297 11.118L6.1 11.1109L6.12812 11.0828L6.1375 11.0734C6.14922 11.0617 6.16094 11.0523 6.175 11.0406C6.18906 11.0289 6.20078 11.0195 6.21484 11.0102C6.21953 11.0078 6.22188 11.0055 6.22656 11.0031C6.23828 10.9961 6.24766 10.9867 6.25937 10.9797C6.26172 10.9773 6.26641 10.975 6.26875 10.9727C6.28281 10.9633 6.29688 10.9563 6.31328 10.9469C6.31563 10.9445 6.32031 10.9445 6.32266 10.9422C6.33438 10.9352 6.34609 10.9305 6.36016 10.9234L6.37422 10.9164C6.39062 10.9094 6.40469 10.9023 6.42109 10.8977C6.4375 10.8906 6.45391 10.8859 6.47031 10.8812C6.475 10.8789 6.47969 10.8789 6.48438 10.8766C6.49844 10.8719 6.51016 10.8695 6.52422 10.8672C6.52891 10.8672 6.53125 10.8648 6.53594 10.8648C6.55234 10.8602 6.57109 10.8578 6.5875 10.8555C6.59219 10.8555 6.59453 10.8555 6.59922 10.8531C6.61328 10.8508 6.62734 10.8508 6.64141 10.8484H6.65547C6.67422 10.8484 6.69063 10.8461 6.70938 10.8461C6.72813 10.8461 6.74453 10.8461 6.76328 10.8484H6.77734C6.79141 10.8484 6.80547 10.8508 6.81953 10.8531C6.82422 10.8531 6.82656 10.8531 6.83125 10.8555C6.84766 10.8578 6.86641 10.8602 6.88281 10.8648C6.8875 10.8648 6.88984 10.8672 6.89453 10.8672C6.90859 10.8695 6.92266 10.8742 6.93438 10.8766C6.93906 10.8789 6.94375 10.8789 6.94844 10.8812C6.96484 10.8859 6.98125 10.8906 6.99766 10.8977C7.01406 10.9023 7.02812 10.9094 7.04453 10.9164L7.05859 10.9234C7.07031 10.9281 7.08438 10.9352 7.09609 10.9422C7.09844 10.9445 7.10313 10.9445 7.10547 10.9469C7.11953 10.9539 7.13594 10.9633 7.15 10.9727C7.15234 10.975 7.15703 10.9773 7.15937 10.9797C7.17109 10.9867 7.18281 10.9937 7.19219 11.0031C7.19688 11.0055 7.19922 11.0078 7.20391 11.0102C7.21797 11.0195 7.23203 11.0313 7.24375 11.0406C7.25547 11.05 7.26953 11.0617 7.28125 11.0734L7.29062 11.0828L7.31875 11.1109L7.32578 11.118C7.3375 11.1297 7.34922 11.1437 7.35859 11.1555C7.36094 11.1578 7.36328 11.1625 7.36563 11.1648C7.375 11.1742 7.38203 11.1859 7.38906 11.1977C7.39141 11.2023 7.39375 11.2047 7.39609 11.2094L7.42422 11.2516C7.42422 11.2516 7.42422 11.2539 7.42656 11.2539C7.50471 11.385 7.546 11.5348 7.54609 11.6875C7.54609 11.8281 7.51094 11.9617 7.45 12.0789C7.44297 12.093 7.43359 12.107 7.42656 12.1211C7.42656 12.1211 7.42656 12.1234 7.42422 12.1234L7.39609 12.1656C7.39375 12.1703 7.39141 12.1727 7.38906 12.1773C7.38203 12.1891 7.37266 12.1984 7.36563 12.2102C7.36328 12.2125 7.36094 12.2172 7.35859 12.2195C7.34687 12.2336 7.3375 12.2453 7.32578 12.257L7.31875 12.2641L7.29062 12.2922L7.28125 12.3016C7.26953 12.3133 7.25781 12.3227 7.24375 12.3344C7.22969 12.3461 7.21797 12.3555 7.20391 12.3648C7.19922 12.3672 7.19688 12.3695 7.19219 12.3719C7.18047 12.3789 7.17109 12.3883 7.15937 12.3953C7.15703 12.3977 7.15234 12.4 7.15 12.4023C7.13594 12.4117 7.12187 12.4187 7.10547 12.4281C7.10313 12.4305 7.09844 12.4305 7.09609 12.4328C7.08438 12.4398 7.07266 12.4445 7.05859 12.4516L7.04453 12.4586C7.02812 12.4656 7.01406 12.4727 6.99766 12.4773C6.98125 12.4844 6.96484 12.4891 6.94844 12.4938C6.94375 12.4961 6.93906 12.4961 6.93438 12.4984C6.92031 12.5031 6.90859 12.5055 6.89453 12.5078C6.88984 12.5078 6.8875 12.5102 6.88281 12.5102C6.86641 12.5148 6.84766 12.5172 6.83125 12.5195C6.82656 12.5195 6.82422 12.5195 6.81953 12.5219C6.80547 12.5242 6.79141 12.5242 6.77734 12.5266H6.76328C6.74453 12.5266 6.72813 12.5289 6.70938 12.5289C6.69063 12.5289 6.67422 12.5289 6.65547 12.5266H6.64141C6.62734 12.5266 6.61328 12.5242 6.59922 12.5219C6.59453 12.5219 6.59219 12.5219 6.5875 12.5195C6.57109 12.5172 6.55234 12.5148 6.53594 12.5102C6.53125 12.5102 6.52891 12.5078 6.52422 12.5078C6.51016 12.5055 6.49609 12.5008 6.48438 12.4984C6.47969 12.4961 6.475 12.4961 6.47031 12.4938C6.45391 12.4891 6.4375 12.4844 6.42109 12.4773C6.40469 12.4727 6.39062 12.4656 6.37422 12.4586L6.36016 12.4516C6.34844 12.4469 6.33438 12.4398 6.32266 12.4328C6.32031 12.4305 6.31563 12.4305 6.31328 12.4281C6.29922 12.4211 6.28281 12.4117 6.26875 12.4023C6.26641 12.4 6.26172 12.3977 6.25937 12.3953C6.24766 12.3883 6.23594 12.3813 6.22656 12.3719C6.22188 12.3695 6.21953 12.3672 6.21484 12.3648C6.20078 12.3555 6.18672 12.3437 6.175 12.3344C6.16328 12.325 6.14922 12.3133 6.1375 12.3016L6.12812 12.2922L6.1 12.2641L6.09297 12.257C6.08125 12.2453 6.06953 12.2313 6.06016 12.2195C6.05781 12.2172 6.05547 12.2125 6.05313 12.2102C6.04375 12.2008 6.03672 12.1891 6.02969 12.1773C6.02734 12.1727 6.025 12.1703 6.02266 12.1656L5.99453 12.1234V12.1211C5.98516 12.107 5.97813 12.093 5.97109 12.0789C5.91016 11.9617 5.875 11.8281 5.875 11.6875C5.875 11.5469 5.91016 11.4133 5.97109 11.2961ZM12.5312 10.6328V15.8125C12.5312 15.9156 12.6156 16 12.7188 16H13.8438C13.9469 16 14.0312 15.9156 14.0312 15.8125V10.6328C13.7945 10.7102 13.5437 10.75 13.2812 10.75C13.0188 10.75 12.768 10.7078 12.5312 10.6328ZM14.0312 5.99219V4.1875C14.0312 4.08437 13.9469 4 13.8438 4H12.7188C12.6156 4 12.5312 4.08437 12.5312 4.1875V5.99219C12.768 5.91484 13.0188 5.875 13.2812 5.875C13.5437 5.875 13.7945 5.91719 14.0312 5.99219ZM12.5312 10.6328C12.768 10.7102 13.0188 10.75 13.2812 10.75C13.5437 10.75 13.7945 10.7078 14.0312 10.6328C15.0109 10.3164 15.7188 9.39766 15.7188 8.3125C15.7188 7.22734 15.0109 6.30859 14.0312 5.99219C13.7945 5.91484 13.5437 5.875 13.2812 5.875C13.0188 5.875 12.768 5.91719 12.5312 5.99219C11.5516 6.30859 10.8438 7.22734 10.8438 8.3125C10.8438 9.39766 11.5516 10.3164 12.5312 10.6328ZM12.5336 7.92109C12.5406 7.90703 12.55 7.89297 12.557 7.87891V7.87656L12.5852 7.83438C12.5875 7.82969 12.5898 7.82734 12.5922 7.82266C12.5992 7.81094 12.6086 7.80156 12.6156 7.78984C12.618 7.7875 12.6203 7.78281 12.6227 7.78047C12.6344 7.76641 12.6437 7.75469 12.6555 7.74297L12.6625 7.73594L12.6906 7.70781L12.7 7.69844C12.7117 7.68672 12.7234 7.67734 12.7375 7.66562C12.7516 7.65391 12.7633 7.64453 12.7773 7.63516C12.782 7.63281 12.7844 7.63047 12.7891 7.62812C12.8008 7.62109 12.8102 7.61172 12.8219 7.60469C12.8242 7.60234 12.8289 7.6 12.8312 7.59766C12.8453 7.58828 12.8594 7.58125 12.8758 7.57187C12.8781 7.56953 12.8828 7.56953 12.8852 7.56719C12.8969 7.56016 12.9086 7.55547 12.9227 7.54844L12.9367 7.54141C12.9531 7.53438 12.9672 7.52734 12.9836 7.52266C13 7.51562 13.0164 7.51094 13.0328 7.50625C13.0375 7.50391 13.0422 7.50391 13.0469 7.50156C13.0609 7.49687 13.0727 7.49453 13.0867 7.49219C13.0914 7.49219 13.0938 7.48984 13.0984 7.48984C13.1148 7.48516 13.1336 7.48281 13.15 7.48047C13.1547 7.48047 13.157 7.48047 13.1617 7.47812C13.1758 7.47578 13.1898 7.47578 13.2039 7.47344H13.218C13.2367 7.47344 13.2531 7.47109 13.2719 7.47109C13.2906 7.47109 13.307 7.47109 13.3258 7.47344H13.3398C13.3539 7.47344 13.368 7.47578 13.382 7.47812C13.3867 7.47812 13.3891 7.47813 13.3937 7.48047C13.4102 7.48281 13.4289 7.48516 13.4453 7.48984C13.45 7.48984 13.4523 7.49219 13.457 7.49219C13.4711 7.49453 13.4852 7.49922 13.4969 7.50156C13.5016 7.50391 13.5062 7.50391 13.5109 7.50625C13.5273 7.51094 13.5438 7.51562 13.5602 7.52266C13.5766 7.52734 13.5906 7.53438 13.607 7.54141L13.6211 7.54844C13.6328 7.55312 13.6469 7.56016 13.6586 7.56719C13.6609 7.56953 13.6656 7.56953 13.668 7.57187C13.682 7.57891 13.6984 7.58828 13.7125 7.59766C13.7148 7.6 13.7195 7.60234 13.7219 7.60469C13.7336 7.61172 13.7453 7.61875 13.7547 7.62812C13.7594 7.63047 13.7617 7.63281 13.7664 7.63516C13.7805 7.64453 13.7945 7.65625 13.8063 7.66562C13.818 7.675 13.832 7.68672 13.8438 7.69844L13.8531 7.70781L13.8812 7.73594L13.8883 7.74297C13.9 7.75469 13.9117 7.76875 13.9211 7.78047C13.9234 7.78281 13.9258 7.7875 13.9281 7.78984C13.9375 7.79922 13.9445 7.81094 13.9516 7.82266C13.9539 7.82734 13.9563 7.82969 13.9586 7.83438L13.9867 7.87656V7.87891C14.0649 8.01004 14.1062 8.15984 14.1063 8.3125C14.1063 8.45312 14.0711 8.58672 14.0102 8.70391C14.0031 8.71797 13.9937 8.73203 13.9867 8.74609V8.74844L13.9586 8.79062C13.9563 8.79531 13.9539 8.79766 13.9516 8.80234C13.9445 8.81406 13.9352 8.82344 13.9281 8.83516C13.9258 8.8375 13.9234 8.84219 13.9211 8.84453C13.9094 8.85859 13.9 8.87031 13.8883 8.88203L13.8812 8.88906L13.8531 8.91719L13.8438 8.92656C13.832 8.93828 13.8203 8.94766 13.8063 8.95938C13.7922 8.97109 13.7805 8.98047 13.7664 8.98984C13.7617 8.99219 13.7594 8.99453 13.7547 8.99688C13.743 9.00391 13.7336 9.01328 13.7219 9.02031C13.7195 9.02266 13.7148 9.025 13.7125 9.02734C13.6984 9.03672 13.6844 9.04375 13.668 9.05313C13.6656 9.05547 13.6609 9.05547 13.6586 9.05781C13.6469 9.06484 13.6352 9.06953 13.6211 9.07656L13.607 9.08359C13.5906 9.09062 13.5766 9.09766 13.5602 9.10234C13.5438 9.10938 13.5273 9.11406 13.5109 9.11875C13.5062 9.12109 13.5016 9.12109 13.4969 9.12344C13.4828 9.12813 13.4711 9.13047 13.457 9.13281C13.4523 9.13281 13.45 9.13516 13.4453 9.13516C13.4289 9.13984 13.4102 9.14219 13.3937 9.14453C13.3891 9.14453 13.3867 9.14453 13.382 9.14688C13.368 9.14922 13.3539 9.14922 13.3398 9.15156H13.3258C13.307 9.15156 13.2906 9.15391 13.2719 9.15391C13.2531 9.15391 13.2367 9.15391 13.218 9.15156H13.2039C13.1898 9.15156 13.1758 9.14922 13.1617 9.14688C13.157 9.14688 13.1547 9.14688 13.15 9.14453C13.1336 9.14219 13.1148 9.13984 13.0984 9.13516C13.0938 9.13516 13.0914 9.13281 13.0867 9.13281C13.0727 9.13047 13.0586 9.12578 13.0469 9.12344C13.0422 9.12109 13.0375 9.12109 13.0328 9.11875C13.0164 9.11406 13 9.10938 12.9836 9.10234C12.9672 9.09766 12.9531 9.09062 12.9367 9.08359L12.9227 9.07656C12.9109 9.07188 12.8969 9.06484 12.8852 9.05781C12.8828 9.05547 12.8781 9.05547 12.8758 9.05313C12.8617 9.04609 12.8453 9.03672 12.8312 9.02734C12.8289 9.025 12.8242 9.02266 12.8219 9.02031C12.8102 9.01328 12.7984 9.00625 12.7891 8.99688C12.7844 8.99453 12.782 8.99219 12.7773 8.98984C12.7633 8.98047 12.7492 8.96875 12.7375 8.95938C12.7258 8.95 12.7117 8.93828 12.7 8.92656L12.6906 8.91719L12.6625 8.88906L12.6555 8.88203C12.6437 8.87031 12.632 8.85625 12.6227 8.84453C12.6203 8.84219 12.618 8.8375 12.6156 8.83516C12.6062 8.82578 12.5992 8.81406 12.5922 8.80234C12.5898 8.79766 12.5875 8.79531 12.5852 8.79062L12.557 8.74844V8.74609C12.5477 8.73203 12.5406 8.71797 12.5336 8.70391C12.4727 8.58672 12.4375 8.45312 12.4375 8.3125C12.4375 8.17188 12.4727 8.03828 12.5336 7.92109Z"
          fill="#FA8C16" stroke="#FA8C16" stroke-width="2" mask="url(#path-1-inside-1_6049:293)"/>
</svg>
