<svg width="50" height="14" viewBox="0 0 50 14" fill="none" xmlns="http://www.w3.org/2000/svg">
<path d="M6.97363 0.00585938V1.75586H2.77637V10H0.657227V0.00585938H6.97363ZM7.26074 2.35742H9.54395L10.9863 6.65723C11.1094 7.03092 11.1937 7.47298 11.2393 7.9834H11.2803C11.3304 7.514 11.4284 7.07194 11.5742 6.65723L12.9893 2.35742H15.2246L11.9912 10.9775C11.695 11.7751 11.2712 12.3721 10.7197 12.7686C10.1729 13.165 9.53255 13.3633 8.79883 13.3633C8.4388 13.3633 8.08561 13.3245 7.73926 13.2471V11.5928C7.98991 11.652 8.26335 11.6816 8.55957 11.6816C8.92871 11.6816 9.25 11.5677 9.52344 11.3398C9.80143 11.1165 10.0179 10.777 10.1729 10.3213L10.2959 9.94531L7.26074 2.35742ZM20.5225 10.1367C19.6247 10.1367 18.9206 9.81087 18.4102 9.15918H18.3008C18.3737 9.7972 18.4102 10.1663 18.4102 10.2666V13.3633H16.3252V2.35742H18.0205L18.3145 3.34863H18.4102C18.8978 2.59212 19.6201 2.21387 20.5771 2.21387C21.4795 2.21387 22.1859 2.5625 22.6963 3.25977C23.2067 3.95703 23.4619 4.92546 23.4619 6.16504C23.4619 6.98079 23.3411 7.68945 23.0996 8.29102C22.8626 8.89258 22.5231 9.35059 22.0811 9.66504C21.639 9.97949 21.1195 10.1367 20.5225 10.1367ZM19.9072 3.88184C19.3923 3.88184 19.0163 4.04134 18.7793 4.36035C18.5423 4.6748 18.4193 5.19661 18.4102 5.92578V6.15137C18.4102 6.97168 18.5309 7.55957 18.7725 7.91504C19.0186 8.27051 19.4059 8.44824 19.9346 8.44824C20.8688 8.44824 21.3359 7.67806 21.3359 6.1377C21.3359 5.38574 21.2197 4.82292 20.9873 4.44922C20.7594 4.07096 20.3994 3.88184 19.9072 3.88184ZM31.5078 2.35742V3.92285H29.0059V10H26.9209V3.92285H24.4121V2.35742H31.5078ZM37.9473 2.35742H40.2441L37.2158 6.02148L40.5107 10H38.1455L35.0215 6.12402V10H32.9365V2.35742H35.0215V6.06934L37.9473 2.35742ZM43.6211 2.35742V5.37891C43.6211 5.69792 43.5687 6.47721 43.4639 7.7168L46.9912 2.35742H49.5V10H47.4834V6.95117C47.4834 6.40885 47.529 5.64323 47.6201 4.6543L44.1064 10H41.6045V2.35742H43.6211Z" fill="white"/>
</svg>
