<svg width="67" height="13" viewBox="0 0 67 13" fill="none" xmlns="http://www.w3.org/2000/svg">
    <path d="M9.15039 10H7.03125V6.1377C6.32943 6.37467 5.74382 6.53646 5.27441 6.62305C4.80957 6.70964 4.36523 6.75293 3.94141 6.75293C2.98893 6.75293 2.25293 6.52507 1.7334 6.06934C1.21842 5.60905 0.960938 4.96419 0.960938 4.13477V0.00585938H3.07324V3.5332C3.07324 4.01628 3.1849 4.38086 3.4082 4.62695C3.63151 4.86849 4.00977 4.98926 4.54297 4.98926C4.91667 4.98926 5.28809 4.9528 5.65723 4.87988C6.03092 4.80241 6.48893 4.67025 7.03125 4.4834V0.00585938H9.15039V10ZM14.6738 3.69727C14.2318 3.69727 13.8854 3.83854 13.6348 4.12109C13.3841 4.39909 13.2406 4.79557 13.2041 5.31055H16.1299C16.1208 4.79557 15.9863 4.39909 15.7266 4.12109C15.4668 3.83854 15.1159 3.69727 14.6738 3.69727ZM14.9678 10.1367C13.7373 10.1367 12.7757 9.7972 12.083 9.11816C11.3903 8.43913 11.0439 7.47754 11.0439 6.2334C11.0439 4.9528 11.363 3.96387 12.001 3.2666C12.6436 2.56478 13.5299 2.21387 14.6602 2.21387C15.7402 2.21387 16.5811 2.52148 17.1826 3.13672C17.7842 3.75195 18.085 4.60189 18.085 5.68652V6.69824H13.1562C13.179 7.29069 13.3545 7.75326 13.6826 8.08594C14.0107 8.41862 14.471 8.58496 15.0635 8.58496C15.5238 8.58496 15.959 8.53711 16.3691 8.44141C16.7793 8.3457 17.2077 8.19303 17.6543 7.9834V9.59668C17.2897 9.77897 16.9001 9.91341 16.4854 10C16.0706 10.0911 15.5648 10.1367 14.9678 10.1367ZM26.623 10H24.5381V3.92285H22.6172C22.4714 5.63184 22.2936 6.90788 22.084 7.75098C21.8743 8.58952 21.5941 9.19792 21.2432 9.57617C20.8968 9.94987 20.4411 10.1367 19.876 10.1367C19.3929 10.1367 18.9964 10.0638 18.6865 9.91797V8.25C18.9098 8.34115 19.1331 8.38672 19.3564 8.38672C19.6162 8.38672 19.8327 8.19987 20.0059 7.82617C20.1836 7.45247 20.3408 6.8304 20.4775 5.95996C20.6188 5.08496 20.7396 3.88411 20.8398 2.35742H26.623V10ZM31.9824 3.69727C31.5404 3.69727 31.194 3.83854 30.9434 4.12109C30.6927 4.39909 30.5492 4.79557 30.5127 5.31055H33.4385C33.4294 4.79557 33.2949 4.39909 33.0352 4.12109C32.7754 3.83854 32.4245 3.69727 31.9824 3.69727ZM32.2764 10.1367C31.0459 10.1367 30.0843 9.7972 29.3916 9.11816C28.6989 8.43913 28.3525 7.47754 28.3525 6.2334C28.3525 4.9528 28.6715 3.96387 29.3096 3.2666C29.9521 2.56478 30.8385 2.21387 31.9688 2.21387C33.0488 2.21387 33.8896 2.52148 34.4912 3.13672C35.0928 3.75195 35.3936 4.60189 35.3936 5.68652V6.69824H30.4648C30.4876 7.29069 30.6631 7.75326 30.9912 8.08594C31.3193 8.41862 31.7796 8.58496 32.3721 8.58496C32.8324 8.58496 33.2676 8.53711 33.6777 8.44141C34.0879 8.3457 34.5163 8.19303 34.9629 7.9834V9.59668C34.5983 9.77897 34.2087 9.91341 33.7939 10C33.3792 10.0911 32.8734 10.1367 32.2764 10.1367ZM39.1738 2.35742V5.29688H42.0859V2.35742H44.1709V10H42.0859V6.84863H39.1738V10H37.0889V2.35742H39.1738ZM51.1436 8.47559V3.92285H49.5781C49.4642 4.77051 49.307 5.57487 49.1064 6.33594C48.9105 7.09701 48.637 7.81022 48.2861 8.47559H51.1436ZM54.3496 12.7412H52.4766V10H47.3359V12.7412H45.4629V8.47559H46.1055C46.543 7.79655 46.9098 6.93978 47.2061 5.90527C47.5023 4.87077 47.7096 3.68815 47.8281 2.35742H53.2285V8.47559H54.3496V12.7412ZM59.7021 6.06934V2.35742H61.6436V6.06934L64.3643 2.35742H66.5176L63.7012 6.02148L66.7842 10H64.5557L61.6436 6.12402V10H59.7021V6.12402L56.79 10H54.5615L57.6445 6.02148L54.8281 2.35742H56.9814L59.7021 6.06934Z"
          fill="white"/>
</svg>
