<?xml version="1.0" encoding="iso-8859-1"?>
<!-- Generator: Adobe Illustrator 19.0.0, SVG Export Plug-In . SVG Version: 6.00 Build 0)  -->
<svg version="1.1" id="Layer_1" xmlns="http://www.w3.org/2000/svg" xmlns:xlink="http://www.w3.org/1999/xlink" x="0px" y="0px"
	 viewBox="0 0 512 512" style="enable-background:new 0 0 512 512;" xml:space="preserve">
<g>
	<g>
		<path d="M395.13,0c-31.771,0-60.614,12.749-81.702,33.391H83.478C37.448,33.391,0,70.84,0,116.87s37.448,83.478,83.478,83.478
			h229.95c21.088,20.643,49.931,33.391,81.702,33.391c64.442,0,116.87-52.428,116.87-116.87S459.572,0,395.13,0z M289.553,166.957
			H83.478c-27.618,0-50.087-22.469-50.087-50.087c0-27.618,22.469-50.087,50.087-50.087h206.074
			c-7.235,15.19-11.292,32.173-11.292,50.087S282.318,151.767,289.553,166.957z M395.13,200.348
			c-46.03,0-83.478-37.448-83.478-83.478s37.448-83.478,83.478-83.478s83.478,37.448,83.478,83.478S441.16,200.348,395.13,200.348z"
			/>
	</g>
</g>
<g>
	<g>
		<path d="M428.522,311.652h-229.95c-21.088-20.642-49.931-33.391-81.702-33.391C52.428,278.261,0,330.689,0,395.13
			S52.428,512,116.87,512c31.771,0,60.614-12.749,81.702-33.391h229.95c46.03,0,83.478-37.448,83.478-83.478
			S474.552,311.652,428.522,311.652z M116.87,478.609c-46.03,0-83.478-37.448-83.478-83.478s37.448-83.478,83.478-83.478
			s83.478,37.448,83.478,83.478S162.899,478.609,116.87,478.609z M428.522,445.217H222.447c7.235-15.19,11.292-32.173,11.292-50.087
			s-4.057-34.897-11.292-50.087h206.074c27.618,0,50.087,22.469,50.087,50.087S456.14,445.217,428.522,445.217z"/>
	</g>
</g>
<g>
</g>
<g>
</g>
<g>
</g>
<g>
</g>
<g>
</g>
<g>
</g>
<g>
</g>
<g>
</g>
<g>
</g>
<g>
</g>
<g>
</g>
<g>
</g>
<g>
</g>
<g>
</g>
<g>
</g>
</svg>
