<svg width="51" height="14" viewBox="0 0 51 14" fill="none" xmlns="http://www.w3.org/2000/svg">
<path d="M8.30664 10H6.19434V1.76953H2.5166V10H0.397461V0.00585938H8.30664V10ZM14.8623 10.1367C13.9645 10.1367 13.2604 9.81087 12.75 9.15918H12.6406C12.7135 9.7972 12.75 10.1663 12.75 10.2666V13.3633H10.665V2.35742H12.3604L12.6543 3.34863H12.75C13.2376 2.59212 13.96 2.21387 14.917 2.21387C15.8193 2.21387 16.5257 2.5625 17.0361 3.25977C17.5465 3.95703 17.8018 4.92546 17.8018 6.16504C17.8018 6.98079 17.681 7.68945 17.4395 8.29102C17.2025 8.89258 16.863 9.35059 16.4209 9.66504C15.9788 9.97949 15.4593 10.1367 14.8623 10.1367ZM14.2471 3.88184C13.7321 3.88184 13.3561 4.04134 13.1191 4.36035C12.8822 4.6748 12.7591 5.19661 12.75 5.92578V6.15137C12.75 6.97168 12.8708 7.55957 13.1123 7.91504C13.3584 8.27051 13.7458 8.44824 14.2744 8.44824C15.2087 8.44824 15.6758 7.67806 15.6758 6.1377C15.6758 5.38574 15.5596 4.82292 15.3271 4.44922C15.0993 4.07096 14.7393 3.88184 14.2471 3.88184ZM21.1855 6.16504C21.1855 6.92155 21.3086 7.49349 21.5547 7.88086C21.8053 8.26823 22.2109 8.46191 22.7715 8.46191C23.3275 8.46191 23.7262 8.27051 23.9678 7.8877C24.2139 7.50033 24.3369 6.92611 24.3369 6.16504C24.3369 5.40853 24.2139 4.84115 23.9678 4.46289C23.7217 4.08464 23.3184 3.89551 22.7578 3.89551C22.2018 3.89551 21.8008 4.08464 21.5547 4.46289C21.3086 4.83659 21.1855 5.40397 21.1855 6.16504ZM26.4697 6.16504C26.4697 7.40918 26.1416 8.38216 25.4854 9.08398C24.8291 9.78581 23.9154 10.1367 22.7441 10.1367C22.0104 10.1367 21.3633 9.97721 20.8027 9.6582C20.2422 9.33464 19.8115 8.87207 19.5107 8.27051C19.21 7.66895 19.0596 6.96712 19.0596 6.16504C19.0596 4.91634 19.3854 3.94564 20.0371 3.25293C20.6888 2.56022 21.6048 2.21387 22.7852 2.21387C23.5189 2.21387 24.166 2.37337 24.7266 2.69238C25.2871 3.01139 25.7178 3.4694 26.0186 4.06641C26.3193 4.66341 26.4697 5.36296 26.4697 6.16504ZM31.5625 10.1367C30.2956 10.1367 29.3385 9.80632 28.6914 9.14551C28.0488 8.48014 27.7275 7.50488 27.7275 6.21973C27.7275 4.86165 28.0352 3.85449 28.6504 3.19824C29.2656 2.54199 30.2318 2.21387 31.5488 2.21387C32.3874 2.21387 33.2008 2.38249 33.9893 2.71973L33.3877 4.20312C32.613 3.9069 31.9818 3.75879 31.4941 3.75879C31.0156 3.75879 30.6442 3.89779 30.3799 4.17578C30.1201 4.45378 29.9561 4.8776 29.8877 5.44727H32.7656V6.83496H29.8877C29.9515 7.43197 30.1087 7.87402 30.3594 8.16113C30.61 8.44368 30.9701 8.58496 31.4395 8.58496C31.7995 8.58496 32.1595 8.54395 32.5195 8.46191C32.8841 8.37988 33.2988 8.23861 33.7637 8.03809V9.6377C33.1165 9.97038 32.3828 10.1367 31.5625 10.1367ZM40.5449 2.35742H42.8418L39.8135 6.02148L43.1084 10H40.7432L37.6191 6.12402V10H35.5342V2.35742H37.6191V6.06934L40.5449 2.35742ZM50.5254 2.35742V3.92285H48.0234V10H45.9385V3.92285H43.4297V2.35742H50.5254Z" fill="white"/>
</svg>
