<svg width="56" height="11" viewBox="0 0 56 11" fill="none" xmlns="http://www.w3.org/2000/svg">
<path d="M8.55176 10H6.43945V5.68652H2.48145V10H0.362305V0.00585938H2.48145V3.92285H6.43945V0.00585938H8.55176V10ZM12.5781 6.16504C12.5781 6.92155 12.7012 7.49349 12.9473 7.88086C13.1979 8.26823 13.6035 8.46191 14.1641 8.46191C14.7201 8.46191 15.1188 8.27051 15.3604 7.8877C15.6064 7.50033 15.7295 6.92611 15.7295 6.16504C15.7295 5.40853 15.6064 4.84115 15.3604 4.46289C15.1143 4.08464 14.7109 3.89551 14.1504 3.89551C13.5944 3.89551 13.1934 4.08464 12.9473 4.46289C12.7012 4.83659 12.5781 5.40397 12.5781 6.16504ZM17.8623 6.16504C17.8623 7.40918 17.5342 8.38216 16.8779 9.08398C16.2217 9.78581 15.3079 10.1367 14.1367 10.1367C13.403 10.1367 12.7559 9.97721 12.1953 9.6582C11.6348 9.33464 11.2041 8.87207 10.9033 8.27051C10.6025 7.66895 10.4521 6.96712 10.4521 6.16504C10.4521 4.91634 10.778 3.94564 11.4297 3.25293C12.0814 2.56022 12.9974 2.21387 14.1777 2.21387C14.9115 2.21387 15.5586 2.37337 16.1191 2.69238C16.6797 3.01139 17.1104 3.4694 17.4111 4.06641C17.7119 4.66341 17.8623 5.36296 17.8623 6.16504ZM26.6396 4.36035C26.6396 4.77051 26.5098 5.12142 26.25 5.41309C25.9948 5.7002 25.6165 5.88477 25.1152 5.9668V6.02148C25.6576 6.08529 26.0859 6.27214 26.4004 6.58203C26.7194 6.88737 26.8789 7.26562 26.8789 7.7168C26.8789 8.45964 26.5872 9.02702 26.0039 9.41895C25.4206 9.80632 24.5866 10 23.502 10H19.585V2.35742H23.502C24.5501 2.35742 25.334 2.52832 25.8535 2.87012C26.3776 3.20736 26.6396 3.7041 26.6396 4.36035ZM24.7188 7.60742C24.7188 7.30664 24.6025 7.09017 24.3701 6.95801C24.1377 6.82129 23.7891 6.75293 23.3242 6.75293H21.6699V8.55762H23.3652C23.8073 8.55762 24.1423 8.47559 24.3701 8.31152C24.6025 8.1429 24.7188 7.9082 24.7188 7.60742ZM24.5273 4.52441C24.5273 4.05957 24.1582 3.82715 23.4199 3.82715H21.6699V5.33789H23.1807C23.6227 5.33789 23.9577 5.27409 24.1855 5.14648C24.4134 5.01888 24.5273 4.81152 24.5273 4.52441ZM30.5566 2.35742V5.37891C30.5566 5.69792 30.5042 6.47721 30.3994 7.7168L33.9268 2.35742H36.4355V10H34.4189V6.95117C34.4189 6.40885 34.4645 5.64323 34.5557 4.6543L31.042 10H28.54V2.35742H30.5566ZM40.7148 2.35742V5.29688H43.627V2.35742H45.7119V10H43.627V6.84863H40.7148V10H38.6299V2.35742H40.7148ZM49.916 2.35742V5.37891C49.916 5.69792 49.8636 6.47721 49.7588 7.7168L53.2861 2.35742H55.7949V10H53.7783V6.95117C53.7783 6.40885 53.8239 5.64323 53.915 4.6543L50.4014 10H47.8994V2.35742H49.916Z" fill="white"/>
</svg>
