<svg width="18" height="20" viewBox="0 0 18 20" fill="none" xmlns="http://www.w3.org/2000/svg">
<path d="M17.1215 15.8969C16.6794 14.8496 16.0378 13.8984 15.2325 13.0961C14.4296 12.2915 13.4785 11.65 12.4317 11.207C12.4223 11.2023 12.4129 11.2 12.4035 11.1953C13.8637 10.1406 14.8129 8.42266 14.8129 6.48438C14.8129 3.27344 12.2114 0.671875 9.00042 0.671875C5.78948 0.671875 3.18792 3.27344 3.18792 6.48438C3.18792 8.42266 4.13714 10.1406 5.59729 11.1977C5.58792 11.2023 5.57854 11.2047 5.56917 11.2094C4.51917 11.6523 3.57698 12.2875 2.76839 13.0984C1.9638 13.9013 1.3223 14.8524 0.879323 15.8992C0.444141 16.924 0.209437 18.0228 0.187917 19.1359C0.187292 19.161 0.191679 19.1858 0.200821 19.2091C0.209964 19.2324 0.223676 19.2537 0.241149 19.2716C0.258623 19.2895 0.279505 19.3037 0.302564 19.3134C0.325624 19.3231 0.350395 19.3281 0.375417 19.3281H1.78167C1.88479 19.3281 1.96682 19.2461 1.96917 19.1453C2.01604 17.3359 2.7426 15.6414 4.02698 14.357C5.35589 13.0281 7.12073 12.2969 9.00042 12.2969C10.8801 12.2969 12.6449 13.0281 13.9739 14.357C15.2582 15.6414 15.9848 17.3359 16.0317 19.1453C16.034 19.2484 16.116 19.3281 16.2192 19.3281H17.6254C17.6504 19.3281 17.6752 19.3231 17.6983 19.3134C17.7213 19.3037 17.7422 19.2895 17.7597 19.2716C17.7772 19.2537 17.7909 19.2324 17.8 19.2091C17.8092 19.1858 17.8135 19.161 17.8129 19.1359C17.7895 18.0156 17.5574 16.9258 17.1215 15.8969V15.8969ZM9.00042 10.5156C7.92464 10.5156 6.91214 10.0961 6.15042 9.33438C5.3887 8.57266 4.96917 7.56016 4.96917 6.48438C4.96917 5.40859 5.3887 4.39609 6.15042 3.63437C6.91214 2.87266 7.92464 2.45312 9.00042 2.45312C10.0762 2.45312 11.0887 2.87266 11.8504 3.63437C12.6121 4.39609 13.0317 5.40859 13.0317 6.48438C13.0317 7.56016 12.6121 8.57266 11.8504 9.33438C11.0887 10.0961 10.0762 10.5156 9.00042 10.5156Z" fill="#D46B08"/>
</svg>
