<?xml version="1.0" standalone="no"?>
<!DOCTYPE svg PUBLIC "-//W3C//DTD SVG 20010904//EN"
 "http://www.w3.org/TR/2001/REC-SVG-20010904/DTD/svg10.dtd">
<svg version="1.0" xmlns="http://www.w3.org/2000/svg"
 width="980.000000pt" height="984.000000pt" viewBox="0 0 980.000000 984.000000"
 preserveAspectRatio="xMidYMid meet">

<g transform="translate(0.000000,984.000000) scale(0.100000,-0.100000)"
fill="#000000" stroke="none">
<path d="M3890 9819 c-1267 -111 -2375 -746 -3119 -1788 -341 -477 -599 -1084
-710 -1671 -70 -371 -81 -986 -25 -1375 114 -793 437 -1516 955 -2140 107
-128 365 -387 494 -494 633 -526 1339 -843 2185 -978 98 -15 174 -18 510 -18
410 1 585 11 790 45 134 23 190 38 190 49 0 5 -33 35 -73 67 -111 90 -298 276
-405 403 -54 63 -102 116 -108 118 -7 2 -51 -28 -100 -67 -76 -62 -89 -69 -95
-53 -4 10 -8 99 -8 198 -2 239 -14 344 -51 447 -91 246 -120 437 -120 776 0
343 14 440 111 738 l59 184 0 595 0 595 596 0 597 0 136 46 c260 87 443 121
701 131 280 10 536 -26 801 -113 172 -56 231 -63 507 -64 l224 0 -6 -27 c-3
-16 -8 -85 -11 -155 l-7 -128 139 -137 c77 -76 175 -181 217 -233 43 -52 87
-101 97 -108 16 -11 19 -9 29 26 73 273 104 1079 55 1447 -105 792 -435 1550
-941 2159 -468 564 -1093 1008 -1796 1275 -289 110 -624 187 -998 232 -200 23
-647 34 -820 18z m208 -1509 c3 -922 3 -940 -16 -940 -112 0 -555 60 -742 100
-190 42 -442 109 -472 126 -13 8 116 278 227 474 112 196 308 488 415 615 229
274 552 597 574 575 8 -8 12 -302 14 -950z m413 857 c311 -278 593 -632 838
-1052 108 -184 232 -437 238 -485 l5 -38 -58 -22 c-178 -67 -917 -200 -1109
-200 l-55 0 0 798 c0 440 3 867 7 950 7 177 -5 173 134 49z m-921 54 c0 -12
-59 -87 -178 -226 -273 -319 -493 -658 -713 -1096 l-99 -199 -52 21 c-183 70
-493 245 -740 416 l-141 97 85 81 c225 215 530 421 881 595 248 124 422 185
792 281 168 43 165 42 165 30z m1492 -41 c491 -119 982 -349 1372 -642 129
-97 302 -245 321 -275 l18 -27 -39 -34 c-119 -103 -755 -472 -856 -497 -27 -7
-29 -3 -139 217 -232 464 -404 726 -721 1099 -69 81 -135 161 -147 178 l-23
32 24 -5 c12 -3 98 -23 190 -46z m-3483 -1229 c181 -130 398 -260 646 -388
121 -62 226 -119 233 -127 12 -11 5 -43 -42 -197 -128 -423 -195 -789 -241
-1319 -8 -96 -15 -181 -15 -187 0 -10 -171 -13 -820 -13 l-820 0 4 23 c3 12 8
69 11 127 36 616 281 1295 662 1837 70 100 249 333 255 333 2 0 59 -40 127
-89z m5499 -34 c309 -387 542 -827 682 -1287 73 -242 140 -635 140 -825 l0
-85 -814 0 -814 0 -7 103 c-34 519 -98 898 -230 1365 -36 125 -65 234 -65 242
0 10 67 49 185 108 274 136 719 407 784 476 14 14 28 26 33 26 4 0 52 -56 106
-123z m-1340 -707 c136 -415 242 -1013 242 -1367 l0 -123 -815 0 -815 0 0 690
0 690 28 0 c77 0 323 23 447 41 283 41 617 118 805 186 30 11 58 18 61 14 4
-3 25 -62 47 -131z m-2818 80 c370 -106 691 -162 1053 -185 l107 -7 0 -689 0
-689 -820 0 -821 0 5 48 c3 26 8 101 11 167 15 308 85 739 171 1050 40 145
107 355 113 355 3 0 85 -23 181 -50z m-760 -1854 c0 -8 7 -97 15 -198 48 -579
146 -1057 314 -1522 32 -90 62 -177 66 -195 l7 -31 -106 -50 c-58 -28 -153
-72 -210 -99 -142 -67 -366 -196 -514 -297 -68 -46 -126 -84 -130 -84 -8 1
-207 234 -289 340 -438 563 -714 1253 -772 1930 -6 69 -13 146 -16 173 l-4 47
819 0 c707 0 820 -2 820 -14z m1920 -809 l0 -823 -195 -18 c-307 -27 -635 -83
-885 -150 -52 -14 -112 -26 -132 -26 -33 0 -40 4 -57 38 -27 54 -122 342 -182
551 -97 342 -166 764 -176 1074 l-6 177 817 0 816 0 0 -823z m0 -1800 c0 -694
-6 -927 -22 -927 -13 0 -332 314 -446 440 -156 171 -383 492 -550 775 -88 151
-111 203 -91 216 47 30 384 110 608 143 189 29 221 32 384 34 l117 2 0 -683z
m-1381 386 c28 -61 179 -326 258 -453 137 -217 302 -436 522 -690 50 -58 91
-110 91 -116 0 -15 -115 10 -317 67 -496 139 -880 328 -1276 625 -83 63 -153
118 -155 123 -4 11 214 152 354 229 60 34 173 91 250 127 76 36 162 76 189 90
64 31 69 30 84 -2z"/>
<path d="M6224 5149 c-109 -12 -288 -59 -416 -109 -482 -191 -836 -553 -1044
-1069 -80 -197 -110 -414 -101 -720 6 -202 23 -307 79 -480 213 -666 848
-1178 1538 -1241 143 -14 348 -9 485 10 242 35 541 153 743 293 l73 51 223
-223 224 -224 -29 -85 c-33 -97 -37 -168 -13 -215 35 -67 138 -182 433 -481
389 -393 613 -603 670 -628 84 -38 215 -11 358 73 32 19 98 74 148 124 76 75
98 106 138 185 53 105 67 165 67 280 l0 77 -457 454 c-445 441 -587 575 -647
606 -41 21 -130 19 -221 -7 -72 -20 -81 -21 -110 -7 -35 17 -294 263 -375 357
l-50 57 72 124 c133 232 196 385 242 590 115 513 -3 1067 -317 1487 -293 393
-731 656 -1197 718 -114 15 -386 17 -516 3z m360 -419 c380 -32 676 -182 939
-478 207 -233 312 -480 337 -795 32 -385 -87 -752 -334 -1037 -194 -223 -504
-398 -796 -451 -113 -21 -423 -18 -530 4 -184 38 -350 108 -497 209 -100 68
-325 292 -385 383 -101 154 -169 319 -210 509 -28 133 -30 378 -5 511 39 200
107 371 211 529 227 345 620 578 1038 615 51 5 98 9 103 9 6 1 64 -3 129 -8z"/>
</g>
</svg>
