<svg width="20" height="18" viewBox="0 0 20 18" fill="none" xmlns="http://www.w3.org/2000/svg">
    <path d="M19.0838 3.47992L14.5228 6.29008L10.1494 0.456484C10.1318 0.433005 10.109 0.413947 10.0828 0.40082C10.0565 0.387694 10.0276 0.380859 9.99824 0.380859C9.9689 0.380859 9.93996 0.387694 9.91372 0.40082C9.88748 0.413947 9.86466 0.433005 9.84707 0.456484L5.47597 6.29008L0.912692 3.47992C0.779099 3.39789 0.605661 3.50805 0.626755 3.66508L2.41738 17.2729C2.44316 17.458 2.60254 17.601 2.79238 17.601H17.2088C17.3963 17.601 17.558 17.4604 17.5814 17.2729L19.3721 3.66508C19.3908 3.50805 19.2197 3.39789 19.0838 3.47992ZM16.1307 15.9979H3.86582L2.60488 6.40258L5.88144 8.42055L9.99941 2.9268L14.1174 8.42055L17.3939 6.40258L16.1307 15.9979ZM9.99941 8.92914C8.54394 8.92914 7.36035 10.1127 7.36035 11.5682C7.36035 13.0237 8.54394 14.2073 9.99941 14.2073C11.4549 14.2073 12.6385 13.0237 12.6385 11.5682C12.6385 10.1127 11.4549 8.92914 9.99941 8.92914ZM9.99941 12.7002C9.37597 12.7002 8.86972 12.194 8.86972 11.5682C8.86972 10.9448 9.37597 10.4362 9.99941 10.4362C10.6228 10.4362 11.1291 10.9424 11.1291 11.5682C11.1291 12.1916 10.6228 12.7002 9.99941 12.7002Z"
          fill="white"/>
</svg>
