<svg width="20" height="20" viewBox="0 0 20 20" fill="none" xmlns="http://www.w3.org/2000/svg">
    <path d="M12.8365 11.6347L12.5672 11.9829L12.8785 12.2942L18.7473 18.163L18.1611 18.7479L12.2918 12.8808L11.9809 12.57L11.6328 12.8385C10.4996 13.7129 9.11649 14.1875 7.65625 14.1875C5.90912 14.1875 4.27165 13.5089 3.03902 12.2741L3.03871 12.2738C1.80574 11.0408 1.125 9.40074 1.125 7.65625C1.125 5.90912 1.80359 4.27165 3.0384 3.03902L3.03871 3.03871C4.27168 1.80574 5.91176 1.125 7.65625 1.125C9.40112 1.125 11.0409 1.80365 12.2735 3.0384C13.507 4.27408 14.1875 5.90976 14.1875 7.65625C14.1875 9.11662 13.7128 10.5018 12.8365 11.6347ZM19.1829 18.1633L19.1829 18.1633L19.1829 18.1633ZM17.9432 18.9653C17.9434 18.9651 17.9436 18.965 17.9437 18.9648L17.9432 18.9653ZM18.3787 18.9653L18.3785 18.9651C18.3785 18.9652 18.3786 18.9652 18.3787 18.9653ZM18.1609 19.1829L18.0874 19.3604L18.1609 19.1829ZM11.7219 11.7227L11.7223 11.7223C12.8075 10.6371 13.4062 9.19033 13.4062 7.65625C13.4062 6.12183 12.8073 4.67778 11.7227 3.59061C10.6369 2.50227 9.18982 1.90625 7.65625 1.90625C6.12183 1.90625 4.67778 2.50518 3.59061 3.58978L3.5902 3.5902C2.50496 4.67544 1.90625 6.12217 1.90625 7.65625C1.90625 9.19067 2.50518 10.6347 3.58978 11.7219L3.59061 11.7227C4.67778 12.8073 6.12183 13.4062 7.65625 13.4062C9.19067 13.4062 10.6347 12.8073 11.7219 11.7227Z"
          fill="white" stroke="white"/>
</svg>
