<svg width="20" height="22" viewBox="0 0 20 22" fill="none" xmlns="http://www.w3.org/2000/svg">
    <path d="M19.2812 14H16.8438V10.4375C16.8438 10.3344 16.7594 10.25 16.6562 10.25H10.8438V8H13.375C13.5813 8 13.75 7.83125 13.75 7.625V0.875C13.75 0.66875 13.5813 0.5 13.375 0.5H6.625C6.41875 0.5 6.25 0.66875 6.25 0.875V7.625C6.25 7.83125 6.41875 8 6.625 8H9.15625V10.25H3.34375C3.24062 10.25 3.15625 10.3344 3.15625 10.4375V14H0.71875C0.5125 14 0.34375 14.1687 0.34375 14.375V21.125C0.34375 21.3312 0.5125 21.5 0.71875 21.5H7.46875C7.675 21.5 7.84375 21.3312 7.84375 21.125V14.375C7.84375 14.1687 7.675 14 7.46875 14H4.84375V11.9375H15.1562V14H12.5312C12.325 14 12.1562 14.1687 12.1562 14.375V21.125C12.1562 21.3312 12.325 21.5 12.5312 21.5H19.2812C19.4875 21.5 19.6562 21.3312 19.6562 21.125V14.375C19.6562 14.1687 19.4875 14 19.2812 14ZM6.0625 15.7812V19.7188H2.125V15.7812H6.0625ZM8.03125 6.21875V2.28125H11.9688V6.21875H8.03125ZM17.875 19.7188H13.9375V15.7812H17.875V19.7188Z"
          fill="white"/>
</svg>
