<?xml version="1.0" encoding="utf-8"?>
<!-- Generator: Adobe Illustrator 23.0.3, SVG Export Plug-In . SVG Version: 6.00 Build 0)  -->
<svg version="1.1" id="Layer_1" xmlns="http://www.w3.org/2000/svg" xmlns:xlink="http://www.w3.org/1999/xlink" x="0px" y="0px"
	 viewBox="0 0 110 88" style="enable-background:new 0 0 110 88;" xml:space="preserve">
<g>
	<path d="M69.9,21.2l0.5-12.9h-2l-0.8,20.9h3.1c0,0,4.2-0.3,4.2-4.1C74.9,22.3,71.8,21.3,69.9,21.2z M69.6,27.6l0.2-4.9
		c1.1,0,3,0,3,2.5C72.9,27,70.5,27.6,69.6,27.6z"/>
	<path d="M63.5,13.6l2-0.2c0,0,0.8-5.5-3.1-5.3c-3.9,0-5,5.3-5,10.7c0,5.5,0.5,10.7,4.6,10.5c4.1-0.2,3.1-5.5,3.1-5.5L63,24
		c0,0,0.8,3.1-0.9,3.1c-2.2,0-2.8-2.8-2.7-8.3c0.2-5.7,0.5-8.9,3-8.9C63.8,10,63.5,13.6,63.5,13.6z"/>
	<path d="M19.2,23.8c-0.9-2.7-3.6-2.8-5-2.4l0.2-4.2c5.7-0.6,6-8.5,6-8.5h-2c0,6-3,6.9-3.8,6.9l0.2-6.8h-2L12,29.3h2l0.2-6.1
		c4.4-1.4,3.9,6.1,3.9,6.1h2C20.1,29.2,20.4,27.3,19.2,23.8z"/>
	<path d="M8.8,52.4c-0.9-2.7-3.6-2.8-5-2.4L4,45.7c6-0.6,6.1-8.8,6.1-8.8H8c0,6-3.1,7.1-4.1,7.1l0.2-7.1h-2L1.6,57.6h2l0.2-6.1
		c4.4-1.4,3.9,6.1,3.9,6.1h2C9.8,57.6,10.1,55.7,8.8,52.4z"/>
	<path d="M83.6,23.8c-0.9-2.7-3.6-2.8-5-2.4l0.2-4.2c5.7-0.6,6-8.5,6-8.5h-2c0,6-3,6.9-3.8,6.9L79,8.9h-2l-0.6,20.4h2l0.2-6.1
		c4.4-1.4,3.9,6.1,3.9,6.1h2C84.4,29.2,84.8,27.3,83.6,23.8z"/>
	<g>
		<polygon points="23.6,29.3 21.7,29.3 22.3,9.1 24.4,9.1 		"/>
		<path d="M23.6,17.2c0,0,6.3,0.2,6.3-4.6c0-2.8-3.5-3.6-5.7-3.8c-1.1-0.2-1.9,0-1.9,0v1.6h1.9c0,0,3.8-0.5,3.8,2.4
			c0,1.7-1.9,3-4.2,3L23.6,17.2z"/>
	</g>
	<g>
		<polygon points="63.6,57.6 61.7,57.6 62.4,37.3 64.4,37.3 		"/>
		<path d="M63.6,45.5c0,0,6.3,0.2,6.3-4.6c0-2.8-3.5-3.6-5.7-3.8c-1.1-0.2-1.9,0-1.9,0v1.6h1.9c0,0,3.8-0.5,3.8,2.4
			c0,1.7-1.9,3-4.2,3L63.6,45.5z"/>
	</g>
	<polygon points="42,29.2 39.9,29.2 40.7,8.8 42.9,8.8 	"/>
	<g>
		<path d="M37.2,2L37.2,2L37.2,2c-0.9,0.3-1.9,0.9-1.9,2.4c0,2.2,1.7,2.8,2.8,3c0.3,0,0.5,0,0.5,0l0,0c0.2,0,0.3,0,0.5-0.2
			c0.8-0.3,1.6-0.9,1.6-2.2C41,1.8,37.2,2,37.2,2z M38.8,5.9L38.8,5.9L38.8,5.9L38.8,5.9c-0.3,0.2-0.5,0.2-0.5,0
			c-0.9,0-1.6-0.3-1.6-1.4c0-0.6,0.3-0.9,0.8-1.1c1.1,0,2,0.2,2,1.6C39.8,5.5,39.3,5.8,38.8,5.9z"/>
	</g>
	<g>
		<path d="M44,2L44,2L44,2c-0.9,0.3-1.9,0.9-1.9,2.4c0,2.2,1.7,2.8,2.8,3c0.3,0,0.5,0,0.5,0l0,0c0.2,0,0.3,0,0.5-0.2
			c0.8-0.3,1.6-0.9,1.6-2.2C47.8,1.8,44,2,44,2z M45.6,5.9L45.6,5.9L45.6,5.9L45.6,5.9c-0.3,0.2-0.5,0.2-0.5,0
			c-0.9,0-1.6-0.3-1.6-1.4c0-0.6,0.3-0.9,0.8-1.1c1.1,0,2,0.2,2,1.6C46.4,5.5,46,5.8,45.6,5.9z"/>
	</g>
	<g>
		<g>
			<path d="M4.7,24L4.7,24L4.7,24c-1.1,0.3-2.2,1.1-2.2,2.8c0,2.7,2,3.3,3.5,3.5c0.5,0,0.6,0,0.6,0l0,0c0.2,0,0.5,0,0.6-0.2
				c1.1-0.3,1.9-1.1,1.9-2.7C9.1,23.8,4.7,24,4.7,24z M6.5,28.5L6.5,28.5L6.5,28.5C6.5,28.5,6.5,28.7,6.5,28.5
				c-0.3,0.2-0.5,0.2-0.6,0.2c-1.1,0-1.7-0.3-1.7-1.7c0-0.6,0.5-1.1,0.9-1.3c1.4,0,2.4,0.2,2.4,1.7C7.4,28.1,7.1,28.4,6.5,28.5z"/>
		</g>
		<path d="M8,8.8l0.2,5c0,1.6,0,2.5-0.2,3.8c-0.2,2-0.5,4.2-2.2,4.2s-2-2.8-2.2-4.2c0-0.6-0.2-1.4-0.2-3.8s0.2-4.9,0.2-4.9h-2
			c0,0-0.2,3.1-0.2,4.9s0.2,3,0.2,3.8c0.3,3.8,1.1,5.8,4.2,5.8c2.8,0,3.9-2,4.2-5.8c0.2-1.6,0.2-2.5,0.2-3.9l-0.2-4.9H8z"/>
	</g>
	<g>
		<g>
			<path d="M15.3,52.4L15.3,52.4L15.3,52.4c-1.1,0.3-2.2,1.1-2.2,2.8c0,2.7,2,3.3,3.5,3.5c0.5,0,0.6,0,0.6,0l0,0
				c0.2,0,0.5,0,0.6-0.2c1.1-0.3,1.9-1.1,1.9-2.7C19.7,52.1,15.3,52.4,15.3,52.4z M17,57L17,57L17,57L17,57c-0.3,0-0.5,0-0.6,0
				c-1.1,0-1.7-0.3-1.7-1.7c0-0.6,0.5-1.1,0.9-1.3c1.4,0,2.4,0.2,2.4,1.7C17.9,56.5,17.5,56.8,17,57z"/>
		</g>
		<path d="M18.6,37l0.2,5c0,1.6,0,2.5-0.2,3.8c-0.2,2-0.5,4.2-2.2,4.2s-2-2.8-2.2-4.2c0-0.6-0.2-1.4-0.2-3.8c0-2.4,0.2-4.9,0.2-4.9
			h-2c0,0-0.2,3.1-0.2,4.9s0.2,3,0.2,3.8c0.3,3.8,1.1,5.8,4.2,5.8c2.8,0,3.9-2,4.2-5.8c0.2-1.3,0.2-2.2,0.2-3.6l-0.2-4.9L18.6,37z"
			/>
	</g>
	<g>
		<g>
			<path d="M54.4,52.4L54.4,52.4L54.4,52.4c-1.1,0.3-2.2,1.1-2.2,2.8c0,2.7,2,3.3,3.5,3.5c0.5,0,0.6,0,0.6,0l0,0
				c0.2,0,0.5,0,0.6-0.2c1.1-0.3,1.9-1.1,1.9-2.7C58.8,52.2,54.4,52.4,54.4,52.4z M56.1,57L56.1,57L56.1,57
				C56.1,57.1,56.1,57.1,56.1,57c-0.3,0.2-0.5,0.2-0.6,0.2c-1.1,0-1.7-0.3-1.7-1.7c0-0.6,0.5-1.1,0.9-1.3c1.4,0,2.4,0.2,2.4,1.7
				C57,56.5,56.6,56.8,56.1,57z"/>
		</g>
		<path d="M57.7,37.2l0.2,5c0,1.6,0,2.5-0.2,3.8c-0.2,2-0.5,4.2-2.2,4.2c-1.7,0-2-2.8-2.2-4.2c0-0.6-0.2-1.4-0.2-3.8
			c0-2.4,0.2-4.9,0.2-4.9h-2c0,0-0.2,3.1-0.2,4.9s0.2,3,0.2,3.8c0.3,3.8,1.1,5.8,4.2,5.8c2.8,0,3.9-2,4.2-5.8
			c0.2-1.3,0.2-2.2,0.2-3.6l-0.2-4.9L57.7,37.2z"/>
	</g>
	<polygon points="94.9,8.8 89.1,24.6 89.7,8.8 87.6,8.8 87,29.2 89.1,29.2 94.9,12.4 94.6,29.2 96.4,29.2 96.8,8.8 	"/>
	<polygon points="90.9,37.2 85.3,53 85.9,37.2 83.9,37.2 83.1,57.6 85.3,57.6 91.1,40.8 90.8,57.6 92.7,57.6 93,37.2 	"/>
	<g>
		<polygon points="35.4,37.2 33.3,37 32.5,57.1 34.6,57.3 		"/>
		<path d="M34.4,48.9c0,0,6.3,0.3,6,5c-0.2,2.8-3.6,3.3-6,3.5c-1.1,0-1.9-0.2-1.9-0.2v-1.6l1.9,0.2c0,0,3.8,0.8,3.9-2.2
			c0.2-1.7-1.6-3-4.1-3.1L34.4,48.9z"/>
	</g>
	<g>
		<polygon points="45.1,57.4 43.2,57.4 43.7,37 45.6,37 		"/>
		<polygon points="40.2,37 48.9,36.9 48.9,38.4 40.2,38.6 		"/>
	</g>
	<g>
		<g>
			<path d="M36,85.7l5.2-20.4l1.9,0.2c0,0,3.5,20.3,3.3,20.3h-2c0,0-2.8-16.6-2.8-16.5h-0.2c0,0-2.2,11.8-3.9,16.5L36,85.7z"/>
		</g>
		<polygon points="45.6,84.1 45.4,85.7 36.8,85.7 36.8,84.1 		"/>
	</g>
	<path d="M23.4,74.9c0-1.4,0-2.4-0.2-3.1v-0.2l0,0c0-0.2,0-0.2,0-0.3c-0.3-3.8-1.1-5.8-4.2-5.8c-2.8,0-3.9,2-4.2,5.8
		c-0.2,1.3-0.2,2.2-0.2,3.6v0.5c0,0.3,0,0.8,0,1.1c0,1.4,0,2.4,0.2,3.1v0.2l0,0c0,0.2,0,0.2,0,0.3c0.3,3.8,1.1,5.8,4.2,5.8
		c2.8,0,3.9-2,4.2-5.8c0.2-1.3,0.2-2.2,0.2-3.6V76C23.4,75.5,23.4,75.2,23.4,74.9z M19.2,83.6c-1.7,0-2-2.4-2.2-3.8
		c0,0-0.2-2.4-0.2-4.6c0-2.2,0.2-4.2,0.2-4.2c0.2-1.9,0.5-3.8,2.2-3.8s2,2.4,2.2,3.8c0,0,0.2,2.2,0.2,4.4c0,2.2-0.2,4.4-0.2,4.6
		C21.1,81.9,20.9,83.6,19.2,83.6z"/>
	<g>
		<polygon points="31.4,21.2 35.8,20.7 36.1,22.3 31.3,22.4 		"/>
		<polygon points="38,29.2 35.4,8.8 33.2,8.6 29.2,29.2 31,29.2 33.9,12.8 34.1,12.8 35.8,29.2 		"/>
	</g>
	<g>
		<polygon points="7.6,85.8 5.7,85.8 5.8,65.4 7.9,65.4 		"/>
		<path d="M2.9,75.6c0-1.1-0.5-8.9,3.9-7.5v-1.6c-1.6-0.3-3.8-0.2-5,2.4c-0.9,2.4-0.9,5.3-0.9,6.8s0,4.1,0.9,6.1
			c1.3,2.7,3.5,2.8,5,2.4v-1.6C2.5,84.1,2.9,76.7,2.9,75.6z"/>
		<path d="M10.7,75.6c0-1.1,0.5-8.9-3.9-7.5v-1.6c1.6-0.3,3.8-0.2,5,2.4c0.9,2.2,0.9,5.2,0.9,6.6s0,4.1-0.9,6.1
			c-1.3,2.7-3.5,2.8-5,2.4v-1.6C11,84.1,10.7,76.7,10.7,75.6z"/>
	</g>
	<g>
		<polygon points="30.7,57.6 27.8,36.9 25.8,36.7 21.9,57.6 23.6,57.6 26.4,40.8 26.6,40.8 28.5,57.6 		"/>
	</g>
	<polygon points="53.4,8.8 52.9,20.7 48.1,17.2 48.2,8.8 46.2,8.8 45.6,29.2 47.6,29.2 47.9,19.4 52.8,23 52.6,29.2 54.7,29.2 
		55.5,8.8 	"/>
	<polygon points="33.3,65 32.8,76.9 27.8,73.4 28.1,65 26.1,65 25.5,85.4 27.5,85.4 27.8,75.6 32.7,79.3 32.5,85.4 34.6,85.4 
		35.4,65 	"/>
	<polygon points="78.9,37.2 78.5,49.1 73.5,45.7 73.7,37.2 71.6,37.2 71.2,57.7 73.2,57.7 73.4,47.8 78.4,51.5 78.1,57.7 80.1,57.7 
		80.9,37.2 	"/>
	<g>
		<polygon points="107,8.8 101.2,24.6 101.8,8.8 99.7,8.8 99.1,29.2 101.2,29.2 107.1,12.4 106.6,29.2 108.7,29.2 109,8.8 		"/>
		<g>
			<path d="M105.7,4.8c0,0.9-0.2,1.9-1.3,1.9c-1.3,0-1.4-0.9-1.4-1.9L101.6,5c0.2,1.9,0.9,3.1,2.8,3.1c2.2,0,2.5-1.6,2.7-3.1
				L105.7,4.8z"/>
		</g>
	</g>
	<g>
		<polygon points="103,37.2 97.4,53 98,37.2 96,37.2 95.2,57.6 97.2,57.6 103.2,40.8 102.9,57.6 104.8,57.6 105.1,37.2 		"/>
		<g>
			<path d="M101.9,33.2c0,0.9-0.2,1.9-1.3,1.9c-1.3,0-1.4-0.9-1.4-1.9l-1.4,0.2c0.2,1.9,0.9,3.1,2.8,3.1c2.2,0,2.5-1.6,2.7-3.1
				L101.9,33.2z"/>
		</g>
	</g>
</g>
</svg>
