<svg id="Layer_1" data-name="Layer 1" xmlns="http://www.w3.org/2000/svg" xmlns:xlink="http://www.w3.org/1999/xlink" viewBox="0 0 237.55 200.69"><defs><style>.cls-1,.cls-2{fill:none;}.cls-2{clip-path:url(#clip-path);clip-rule:evenodd;}.cls-3{clip-path:url(#clip-path-7);}.cls-4{fill:#eda42a;}.cls-5{clip-path:url(#clip-path-8);}.cls-6{fill:#f4be68;}.cls-7{clip-path:url(#clip-path-9);}.cls-8{fill:#08517e;}.cls-9{clip-path:url(#clip-path-10);}.cls-10{clip-path:url(#clip-path-11);}.cls-11{clip-path:url(#clip-path-12);}</style><clipPath id="clip-path"><rect class="cls-1" x="425.83" y="444.58" width="228" height="192"/></clipPath><clipPath id="clip-path-7" transform="translate(-421 -440)"><polygon class="cls-2" points="602.05 497.4 547.32 543.33 598.81 552.41 653.55 506.48 602.05 497.4 602.05 497.4"/></clipPath><clipPath id="clip-path-8" transform="translate(-421 -440)"><polygon class="cls-2" points="547.31 543.22 602.05 497.29 602.05 445 547.31 490.93 547.31 543.22 547.31 543.22"/></clipPath><clipPath id="clip-path-9" transform="translate(-421 -440)"><path class="cls-2" d="M426,544.61c0,12.62,9.7,14,15.81,13.74,0,0,23.88-.87,29.18-1.59V546h-26.1c-2.71,0-5.75.09-5.8-4.87V530.48l27.64-.88V518.84l-27.64-1V507.17c0-2.53,0-5.24,4.87-5.24h27V491.11c-6-.83-30.12-1.5-30.12-1.5-6.46-.13-14.87,2.33-14.87,14.22v40.78Z"/></clipPath><clipPath id="clip-path-10" transform="translate(-421 -440)"><path class="cls-2" d="M555.62,608.61l8.23-24.44,7.69,24.44Zm-22.4,26.77h14.06l4.94-15.17h22.42l4.87,15.17h13.94l-22.24-68.46H556.32l-23.1,68.46ZM426,621.92c0,12.62,9.7,14,15.81,13.74,0,0,23.88-.87,29.18-1.59V623.34h-26.1c-2.71,0-5.75.09-5.8-4.87V607.79l27.64-.88V596.14l-27.64-1V584.48c0-2.53,0-5.24,4.87-5.24h27V568.41c-6-.82-30.12-1.49-30.12-1.49-6.46-.13-14.87,2.33-14.87,14.21v40.79Z"/></clipPath><clipPath id="clip-path-11" transform="translate(-421 -440)"><path class="cls-2" d="M491.37,597.87V578.56h15.52c4.11,0,6.73,1.93,6.73,9.71,0,8.27-2.17,9.6-6.73,9.6Zm-13.15,37.51h13.1V608.16l11.5,1.31,11.32,25.91h14.73l-13-27c3.8-1.2,10.9-3.21,10.9-20.15,0-16.35-7.95-21.35-18.63-21.35h-30v68.46Z"/></clipPath><clipPath id="clip-path-12" transform="translate(-421 -440)"><path class="cls-2" d="M491.32,546.39V501.16h15c7.3,0,11.68,4.55,11.68,22.87,0,13.73-3.2,22.36-11.68,22.36Zm-13.1,11.68h29.09c16.72,0,23.75-13.8,23.75-34,0-17-4-34.51-23.75-34.51H478.22v68.46Z"/></clipPath></defs><title>EDERA</title><g class="cls-3"><rect class="cls-4" x="121.32" y="52.4" width="116.23" height="65.01"/></g><g class="cls-5"><rect class="cls-6" x="121.31" width="64.74" height="108.22"/></g><g class="cls-7"><rect class="cls-8" y="44.6" width="54.99" height="78.77"/></g><g class="cls-9"><rect class="cls-4" y="121.91" width="177.45" height="78.77"/></g><g class="cls-10"><rect class="cls-4" x="52.22" y="121.92" width="60.65" height="78.46"/></g><g class="cls-11"><rect class="cls-8" x="52.22" y="44.61" width="62.84" height="78.46"/></g></svg>