<?xml version="1.0" encoding="iso-8859-1"?>
<!-- Generator: Adobe Illustrator 19.0.0, SVG Export Plug-In . SVG Version: 6.00 Build 0)  -->
<svg version="1.1" id="Layer_1" xmlns="http://www.w3.org/2000/svg" xmlns:xlink="http://www.w3.org/1999/xlink" x="0px" y="0px"
	 viewBox="0 0 512 512" style="enable-background:new 0 0 512 512;" xml:space="preserve">
<g>
	<g>
		<path d="M368.118,318.792h-36.723c28.633-16.906,50.367-45.106,60.078-77.767c30.074-2.092,53.905-27.373,53.905-57.969
			c0-28.781-21.087-52.474-48.624-56.953C392.172,55.67,333.403,0,261.778,0h-9.552c-71.625,0-130.399,55.587-134.98,126.021
			c-27.537,4.479-48.624,28.255-48.624,57.035c0,30.597,23.83,55.958,53.904,58.049c9.714,32.663,31.447,60.781,60.081,77.686
			h-36.726c-53.255,0-97.58,42.686-97.58,95.951v86.943c0,5.34,5.326,10.314,10.66,10.314h396.075c5.335,0,8.66-4.974,8.66-10.314
			v-86.943C463.698,361.479,421.373,318.792,368.118,318.792z M396.076,202.262v-56.738c16.906,4.307,29.481,19.401,29.481,37.37
			c0,18.429-13.224,33.858-30.508,37.7C395.866,214.594,396.076,208.481,396.076,202.262z M87.443,182.894
			c0-17.969,13.991-33.064,28.481-37.37v56.738c0,6.219,0.71,12.333,1.527,18.333C100.167,216.752,87.443,201.323,87.443,182.894z
			 M135.245,134.545c0-63.896,53.028-115.224,116.981-115.224h9.552c63.948,0,114.976,51.328,114.976,115.224v8.087
			c-62.792-11.608-86.788-49.972-87.821-51.653c-1.656-2.755-4.325-4.509-7.533-4.679c-3.288-0.132-6.677,1.283-8.601,3.859
			c-43.84,58.45-110.988,70.37-137.554,72.795V134.545z M135.245,202.262V182.42c26.566-2.035,95-12.896,144.712-70.809
			c13.152,15.108,43.665,41.729,96.797,50.639v40.012c0,63.896-51.028,116.531-114.976,116.531h-9.552
			C188.273,318.792,135.245,266.158,135.245,202.262z M241.509,492.679H67.623v-77.936c0-42.613,35.66-76.63,78.259-76.63h33.36
			l62.268,98.769V492.679z M252.17,414.906c-0.272,0-0.528,0.304-0.795,0.325l-49.229-77.118h50.08h9.552h40.415l-49.229,77.038
			C252.698,415.127,252.442,414.906,252.17,414.906z M444.377,492.679H260.83v-55.797l64.268-98.769h43.02
			c42.599,0,76.26,34.017,76.26,76.63V492.679z"/>
	</g>
</g>
<g>
	<g>
		<path d="M310.132,443.724c-10.656,0-19.321,8.67-19.321,19.321c0,10.651,8.665,19.321,19.321,19.321s19.321-8.67,19.321-19.321
			C329.453,452.394,320.788,443.724,310.132,443.724z"/>
	</g>
</g>
<g>
	<g>
		<path d="M203.868,173.234c-10.656,0-19.321,8.67-19.321,19.321c0,10.651,8.665,19.321,19.321,19.321
			c10.656,0,19.321-8.67,19.321-19.321C223.189,181.903,214.524,173.234,203.868,173.234z"/>
	</g>
</g>
<g>
	<g>
		<path d="M310.132,173.234c-10.656,0-19.321,8.67-19.321,19.321c0,10.651,8.665,19.321,19.321,19.321s19.321-8.67,19.321-19.321
			C329.453,181.903,320.788,173.234,310.132,173.234z"/>
	</g>
</g>
<g>
	<g>
		<path d="M317.278,244.017c-3.58-3.943-9.689-4.236-13.646-0.651c-8.094,7.368-33.127,26.472-51.462,26.472
			c-17.363,0-35.227-18.198-40.646-25.217c-3.264-4.217-9.33-5.009-13.542-1.755c-4.222,3.255-5.024,9.302-1.778,13.528
			c1.024,1.34,25.472,32.764,55.967,32.764c28.981,0,60.915-28.273,64.462-31.491C320.58,254.073,320.868,247.969,317.278,244.017z"
			/>
	</g>
</g>
<g>
</g>
<g>
</g>
<g>
</g>
<g>
</g>
<g>
</g>
<g>
</g>
<g>
</g>
<g>
</g>
<g>
</g>
<g>
</g>
<g>
</g>
<g>
</g>
<g>
</g>
<g>
</g>
<g>
</g>
</svg>
