<svg width="557" height="33" viewBox="0 0 557 33" fill="none" xmlns="http://www.w3.org/2000/svg">
    <path d="M0.875 25V2.15625H5.71875V25H0.875ZM15.8594 7.53125V14.25H22.5156V7.53125H27.2812V25H22.5156V17.7969H15.8594V25H11.0938V7.53125H15.8594ZM32.0781 3.01562C32.0781 1.46354 32.9427 0.6875 34.6719 0.6875C36.401 0.6875 37.2656 1.46354 37.2656 3.01562C37.2656 3.75521 37.0469 4.33333 36.6094 4.75C36.1823 5.15625 35.5365 5.35938 34.6719 5.35938C32.9427 5.35938 32.0781 4.57812 32.0781 3.01562ZM37.0469 25H32.2812V7.53125H37.0469V25ZM58.5781 21.5156H61.125V31.2656H56.8438V25H42.0625V7.53125H46.8281V21.4219H53.7969V7.53125H58.5781V21.5156ZM63.8906 3.01562C63.8906 1.46354 64.7552 0.6875 66.4844 0.6875C68.2135 0.6875 69.0781 1.46354 69.0781 3.01562C69.0781 3.75521 68.8594 4.33333 68.4219 4.75C67.9948 5.15625 67.349 5.35938 66.4844 5.35938C64.7552 5.35938 63.8906 4.57812 63.8906 3.01562ZM68.8594 25H64.0938V7.53125H68.8594V25ZM84.9688 25L84.0469 22.625H83.9219C83.1198 23.6354 82.2917 24.3385 81.4375 24.7344C80.5938 25.1198 79.4896 25.3125 78.125 25.3125C76.4479 25.3125 75.125 24.8333 74.1562 23.875C73.1979 22.9167 72.7188 21.5521 72.7188 19.7812C72.7188 17.9271 73.3646 16.5625 74.6562 15.6875C75.9583 14.8021 77.9167 14.3125 80.5312 14.2188L83.5625 14.125V13.3594C83.5625 11.5885 82.6562 10.7031 80.8438 10.7031C79.4479 10.7031 77.8073 11.125 75.9219 11.9688L74.3438 8.75C76.3542 7.69792 78.5833 7.17188 81.0312 7.17188C83.375 7.17188 85.1719 7.68229 86.4219 8.70312C87.6719 9.72396 88.2969 11.276 88.2969 13.3594V25H84.9688ZM83.5625 16.9062L81.7188 16.9688C80.3333 17.0104 79.3021 17.2604 78.625 17.7188C77.9479 18.1771 77.6094 18.875 77.6094 19.8125C77.6094 21.1562 78.3802 21.8281 79.9219 21.8281C81.026 21.8281 81.9062 21.5104 82.5625 20.875C83.2292 20.2396 83.5625 19.3958 83.5625 18.3438V16.9062ZM107.672 7.53125V11.1094H101.953V25H97.1875V11.1094H91.4531V7.53125H107.672ZM115.547 7.53125V14.4375C115.547 15.1667 115.427 16.9479 115.188 19.7812L123.25 7.53125H128.984V25H124.375V18.0312C124.375 16.7917 124.479 15.0417 124.688 12.7812L116.656 25H110.938V7.53125H115.547ZM150.125 12.1094C150.125 13.0469 149.828 13.849 149.234 14.5156C148.651 15.1719 147.786 15.5938 146.641 15.7812V15.9062C147.88 16.0521 148.859 16.4792 149.578 17.1875C150.307 17.8854 150.672 18.75 150.672 19.7812C150.672 21.4792 150.005 22.776 148.672 23.6719C147.339 24.5573 145.432 25 142.953 25H134V7.53125H142.953C145.349 7.53125 147.141 7.92188 148.328 8.70312C149.526 9.47396 150.125 10.6094 150.125 12.1094ZM145.734 19.5312C145.734 18.8438 145.469 18.349 144.938 18.0469C144.406 17.7344 143.609 17.5781 142.547 17.5781H138.766V21.7031H142.641C143.651 21.7031 144.417 21.5156 144.938 21.1406C145.469 20.7552 145.734 20.2188 145.734 19.5312ZM145.297 12.4844C145.297 11.4219 144.453 10.8906 142.766 10.8906H138.766V14.3438H142.219C143.229 14.3438 143.995 14.1979 144.516 13.9062C145.036 13.6146 145.297 13.1406 145.297 12.4844ZM165.562 25L164.641 22.625H164.516C163.714 23.6354 162.885 24.3385 162.031 24.7344C161.188 25.1198 160.083 25.3125 158.719 25.3125C157.042 25.3125 155.719 24.8333 154.75 23.875C153.792 22.9167 153.312 21.5521 153.312 19.7812C153.312 17.9271 153.958 16.5625 155.25 15.6875C156.552 14.8021 158.51 14.3125 161.125 14.2188L164.156 14.125V13.3594C164.156 11.5885 163.25 10.7031 161.438 10.7031C160.042 10.7031 158.401 11.125 156.516 11.9688L154.938 8.75C156.948 7.69792 159.177 7.17188 161.625 7.17188C163.969 7.17188 165.766 7.68229 167.016 8.70312C168.266 9.72396 168.891 11.276 168.891 13.3594V25H165.562ZM164.156 16.9062L162.312 16.9688C160.927 17.0104 159.896 17.2604 159.219 17.7188C158.542 18.1771 158.203 18.875 158.203 19.8125C158.203 21.1562 158.974 21.8281 160.516 21.8281C161.62 21.8281 162.5 21.5104 163.156 20.875C163.823 20.2396 164.156 19.3958 164.156 18.3438V16.9062ZM187.312 9.64062C187.542 8.69271 187.917 7.50521 188.438 6.07812C188.969 4.64062 189.51 3.33333 190.062 2.15625H193.484C192.797 4.9375 192.271 7.54688 191.906 9.98438H187.531L187.312 9.64062ZM180.016 9.64062C180.245 8.69271 180.62 7.50521 181.141 6.07812C181.672 4.64062 182.214 3.33333 182.766 2.15625H186.188C185.5 4.9375 184.974 7.54688 184.609 9.98438H180.234L180.016 9.64062ZM215.469 25H210.641V15.1406H201.594V25H196.75V2.15625H201.594V11.1094H210.641V2.15625H215.469V25ZM231.969 25L231.047 22.625H230.922C230.12 23.6354 229.292 24.3385 228.438 24.7344C227.594 25.1198 226.49 25.3125 225.125 25.3125C223.448 25.3125 222.125 24.8333 221.156 23.875C220.198 22.9167 219.719 21.5521 219.719 19.7812C219.719 17.9271 220.365 16.5625 221.656 15.6875C222.958 14.8021 224.917 14.3125 227.531 14.2188L230.562 14.125V13.3594C230.562 11.5885 229.656 10.7031 227.844 10.7031C226.448 10.7031 224.807 11.125 222.922 11.9688L221.344 8.75C223.354 7.69792 225.583 7.17188 228.031 7.17188C230.375 7.17188 232.172 7.68229 233.422 8.70312C234.672 9.72396 235.297 11.276 235.297 13.3594V25H231.969ZM230.562 16.9062L228.719 16.9688C227.333 17.0104 226.302 17.2604 225.625 17.7188C224.948 18.1771 224.609 18.875 224.609 19.8125C224.609 21.1562 225.38 21.8281 226.922 21.8281C228.026 21.8281 228.906 21.5104 229.562 20.875C230.229 20.2396 230.562 19.3958 230.562 18.3438V16.9062ZM256.344 12.1094C256.344 13.0469 256.047 13.849 255.453 14.5156C254.87 15.1719 254.005 15.5938 252.859 15.7812V15.9062C254.099 16.0521 255.078 16.4792 255.797 17.1875C256.526 17.8854 256.891 18.75 256.891 19.7812C256.891 21.4792 256.224 22.776 254.891 23.6719C253.557 24.5573 251.651 25 249.172 25H240.219V7.53125H249.172C251.568 7.53125 253.359 7.92188 254.547 8.70312C255.745 9.47396 256.344 10.6094 256.344 12.1094ZM251.953 19.5312C251.953 18.8438 251.688 18.349 251.156 18.0469C250.625 17.7344 249.828 17.5781 248.766 17.5781H244.984V21.7031H248.859C249.87 21.7031 250.635 21.5156 251.156 21.1406C251.688 20.7552 251.953 20.2188 251.953 19.5312ZM251.516 12.4844C251.516 11.4219 250.672 10.8906 248.984 10.8906H244.984V14.3438H248.438C249.448 14.3438 250.214 14.1979 250.734 13.9062C251.255 13.6146 251.516 13.1406 251.516 12.4844ZM264.875 7.53125V13.9219C264.875 15.4427 265.578 16.2031 266.984 16.2031C267.901 16.2031 268.75 16.099 269.531 15.8906C270.323 15.6823 271.12 15.4115 271.922 15.0781V7.53125H276.688V25H271.922V18.0625C270.818 18.6458 269.792 19.0573 268.844 19.2969C267.896 19.5365 266.979 19.6562 266.094 19.6562C264.188 19.6562 262.714 19.1719 261.672 18.2031C260.63 17.224 260.109 15.8333 260.109 14.0312V7.53125H264.875ZM292.781 25L291.859 22.625H291.734C290.932 23.6354 290.104 24.3385 289.25 24.7344C288.406 25.1198 287.302 25.3125 285.938 25.3125C284.26 25.3125 282.938 24.8333 281.969 23.875C281.01 22.9167 280.531 21.5521 280.531 19.7812C280.531 17.9271 281.177 16.5625 282.469 15.6875C283.771 14.8021 285.729 14.3125 288.344 14.2188L291.375 14.125V13.3594C291.375 11.5885 290.469 10.7031 288.656 10.7031C287.26 10.7031 285.62 11.125 283.734 11.9688L282.156 8.75C284.167 7.69792 286.396 7.17188 288.844 7.17188C291.188 7.17188 292.984 7.68229 294.234 8.70312C295.484 9.72396 296.109 11.276 296.109 13.3594V25H292.781ZM291.375 16.9062L289.531 16.9688C288.146 17.0104 287.115 17.2604 286.438 17.7188C285.76 18.1771 285.422 18.875 285.422 19.8125C285.422 21.1562 286.193 21.8281 287.734 21.8281C288.839 21.8281 289.719 21.5104 290.375 20.875C291.042 20.2396 291.375 19.3958 291.375 18.3438V16.9062ZM305.641 7.53125V14.4375C305.641 15.1667 305.521 16.9479 305.281 19.7812L313.344 7.53125H319.078V25H314.469V18.0312C314.469 16.7917 314.573 15.0417 314.781 12.7812L306.75 25H301.031V7.53125H305.641ZM317.672 0.015625C317.474 1.96354 316.74 3.38542 315.469 4.28125C314.198 5.16667 312.365 5.60938 309.969 5.60938C307.5 5.60938 305.672 5.18229 304.484 4.32812C303.307 3.47396 302.646 2.03646 302.5 0.015625H306.766C306.839 1.08854 307.104 1.84375 307.562 2.28125C308.031 2.70833 308.865 2.92188 310.062 2.92188C311.115 2.92188 311.896 2.6875 312.406 2.21875C312.927 1.73958 313.245 1.00521 313.359 0.015625H317.672ZM329.906 7.53125H335.125L338.422 17.3594C338.703 18.2135 338.896 19.224 339 20.3906H339.094C339.208 19.3177 339.432 18.3073 339.766 17.3594L343 7.53125H348.109L340.719 27.2344C340.042 29.0573 339.073 30.4219 337.812 31.3281C336.562 32.2344 335.099 32.6875 333.422 32.6875C332.599 32.6875 331.792 32.599 331 32.4219V28.6406C331.573 28.776 332.198 28.8438 332.875 28.8438C333.719 28.8438 334.453 28.5833 335.078 28.0625C335.714 27.5521 336.208 26.776 336.562 25.7344L336.844 24.875L329.906 7.53125ZM362.078 7.53125H367.328L360.406 15.9062L367.938 25H362.531L355.391 16.1406V25H350.625V7.53125H355.391V16.0156L362.078 7.53125ZM380.031 25.3125C377.979 25.3125 376.37 24.5677 375.203 23.0781H374.953C375.12 24.5365 375.203 25.3802 375.203 25.6094V32.6875H370.438V7.53125H374.312L374.984 9.79688H375.203C376.318 8.06771 377.969 7.20312 380.156 7.20312C382.219 7.20312 383.833 8 385 9.59375C386.167 11.1875 386.75 13.401 386.75 16.2344C386.75 18.099 386.474 19.7188 385.922 21.0938C385.38 22.4688 384.604 23.5156 383.594 24.2344C382.583 24.9531 381.396 25.3125 380.031 25.3125ZM378.625 11.0156C377.448 11.0156 376.589 11.3802 376.047 12.1094C375.505 12.8281 375.224 14.0208 375.203 15.6875V16.2031C375.203 18.0781 375.479 19.4219 376.031 20.2344C376.594 21.0469 377.479 21.4531 378.688 21.4531C380.823 21.4531 381.891 19.6927 381.891 16.1719C381.891 14.4531 381.625 13.1667 381.094 12.3125C380.573 11.4479 379.75 11.0156 378.625 11.0156ZM401.781 25L400.859 22.625H400.734C399.932 23.6354 399.104 24.3385 398.25 24.7344C397.406 25.1198 396.302 25.3125 394.938 25.3125C393.26 25.3125 391.938 24.8333 390.969 23.875C390.01 22.9167 389.531 21.5521 389.531 19.7812C389.531 17.9271 390.177 16.5625 391.469 15.6875C392.771 14.8021 394.729 14.3125 397.344 14.2188L400.375 14.125V13.3594C400.375 11.5885 399.469 10.7031 397.656 10.7031C396.26 10.7031 394.62 11.125 392.734 11.9688L391.156 8.75C393.167 7.69792 395.396 7.17188 397.844 7.17188C400.188 7.17188 401.984 7.68229 403.234 8.70312C404.484 9.72396 405.109 11.276 405.109 13.3594V25H401.781ZM400.375 16.9062L398.531 16.9688C397.146 17.0104 396.115 17.2604 395.438 17.7188C394.76 18.1771 394.422 18.875 394.422 19.8125C394.422 21.1562 395.193 21.8281 396.734 21.8281C397.839 21.8281 398.719 21.5104 399.375 20.875C400.042 20.2396 400.375 19.3958 400.375 18.3438V16.9062ZM414.797 25H410.031V7.53125H414.797V25ZM407.109 3.04688C407.109 2.36979 407.302 1.84896 407.688 1.48438C408.083 1.11979 408.615 0.9375 409.281 0.9375C409.969 0.9375 410.505 1.13021 410.891 1.51562C411.286 1.90104 411.484 2.41146 411.484 3.04688C411.484 3.67188 411.286 4.17708 410.891 4.5625C410.495 4.9375 409.958 5.125 409.281 5.125C408.615 5.125 408.083 4.94271 407.688 4.57812C407.302 4.21354 407.109 3.70312 407.109 3.04688ZM413.406 3.04688C413.406 2.31771 413.615 1.78646 414.031 1.45312C414.458 1.10938 414.984 0.9375 415.609 0.9375C416.286 0.9375 416.823 1.125 417.219 1.5C417.625 1.875 417.828 2.39062 417.828 3.04688C417.828 3.68229 417.625 4.1875 417.219 4.5625C416.812 4.9375 416.276 5.125 415.609 5.125C414.984 5.125 414.458 4.95833 414.031 4.625C413.615 4.28125 413.406 3.75521 413.406 3.04688ZM424.578 7.53125V14.25H431.234V7.53125H436V25H431.234V17.7969H424.578V25H419.812V7.53125H424.578ZM448.094 25.3125C442.656 25.3125 439.938 22.3281 439.938 16.3594C439.938 13.3906 440.677 11.125 442.156 9.5625C443.635 7.98958 445.755 7.20312 448.516 7.20312C450.536 7.20312 452.349 7.59896 453.953 8.39062L452.547 12.0781C451.797 11.776 451.099 11.5312 450.453 11.3438C449.807 11.1458 449.161 11.0469 448.516 11.0469C446.036 11.0469 444.797 12.8073 444.797 16.3281C444.797 19.7448 446.036 21.4531 448.516 21.4531C449.432 21.4531 450.281 21.3333 451.062 21.0938C451.844 20.8438 452.625 20.4583 453.406 19.9375V24.0156C452.635 24.5052 451.854 24.8438 451.062 25.0312C450.281 25.2188 449.292 25.3125 448.094 25.3125ZM462.234 14.2812H465.594C468.281 14.2812 470.271 14.7083 471.562 15.5625C472.854 16.4167 473.5 17.7083 473.5 19.4375C473.5 23.1458 470.927 25 465.781 25H457.469V7.53125H462.234V14.2812ZM468.734 19.5C468.734 18.8229 468.464 18.3333 467.922 18.0312C467.38 17.7292 466.573 17.5781 465.5 17.5781H462.234V21.7031H465.562C467.677 21.7031 468.734 20.9688 468.734 19.5ZM488.578 7.53125H493.828L486.906 15.9062L494.438 25H489.031L481.891 16.1406V25H477.125V7.53125H481.891V16.0156L488.578 7.53125ZM500.734 16.2344C500.734 17.9635 501.016 19.2708 501.578 20.1562C502.151 21.0417 503.078 21.4844 504.359 21.4844C505.63 21.4844 506.542 21.0469 507.094 20.1719C507.656 19.2865 507.938 17.974 507.938 16.2344C507.938 14.5052 507.656 13.2083 507.094 12.3438C506.531 11.4792 505.609 11.0469 504.328 11.0469C503.057 11.0469 502.141 11.4792 501.578 12.3438C501.016 13.1979 500.734 14.4948 500.734 16.2344ZM512.812 16.2344C512.812 19.0781 512.062 21.3021 510.562 22.9062C509.062 24.5104 506.974 25.3125 504.297 25.3125C502.62 25.3125 501.141 24.9479 499.859 24.2188C498.578 23.4792 497.594 22.4219 496.906 21.0469C496.219 19.6719 495.875 18.0677 495.875 16.2344C495.875 13.3802 496.62 11.1615 498.109 9.57812C499.599 7.99479 501.693 7.20312 504.391 7.20312C506.068 7.20312 507.547 7.56771 508.828 8.29688C510.109 9.02604 511.094 10.0729 511.781 11.4375C512.469 12.8021 512.812 14.401 512.812 16.2344ZM540.875 16.2344C540.875 19.099 540.151 21.3281 538.703 22.9219C537.255 24.5156 535.25 25.3125 532.688 25.3125C530.385 25.3125 528.542 24.6667 527.156 23.375C525.781 22.0833 524.948 20.224 524.656 17.7969H521.516V25H516.75V7.53125H521.516V14.25H524.719C525.021 12.0208 525.88 10.2917 527.297 9.0625C528.724 7.82292 530.552 7.20312 532.781 7.20312C535.25 7.20312 537.214 8.01562 538.672 9.64062C540.141 11.2552 540.875 13.4531 540.875 16.2344ZM529.453 16.2344C529.453 17.974 529.708 19.2865 530.219 20.1719C530.729 21.0469 531.573 21.4844 532.75 21.4844C533.906 21.4844 534.74 21.0469 535.25 20.1719C535.76 19.2865 536.016 17.974 536.016 16.2344C536.016 14.4948 535.755 13.1979 535.234 12.3438C534.724 11.4792 533.885 11.0469 532.719 11.0469C531.562 11.0469 530.729 11.4792 530.219 12.3438C529.708 13.2083 529.453 14.5052 529.453 16.2344ZM548.875 2.5C548.354 4.55208 547.438 7.04688 546.125 9.98438H542.703C543.422 6.90104 543.943 4.29167 544.266 2.15625H548.656L548.875 2.5ZM556.172 2.5C555.651 4.55208 554.734 7.04688 553.422 9.98438H550C550.719 6.90104 551.24 4.29167 551.562 2.15625H555.938L556.172 2.5Z"
          fill="white"/>
</svg>
