<svg width="16" height="16" viewBox="0 0 16 16" fill="none" xmlns="http://www.w3.org/2000/svg">
<path d="M14.4688 0.96875H1.53125C1.22012 0.96875 0.96875 1.22012 0.96875 1.53125V14.4688C0.96875 14.7799 1.22012 15.0312 1.53125 15.0312H14.4688C14.7799 15.0312 15.0312 14.7799 15.0312 14.4688V1.53125C15.0312 1.22012 14.7799 0.96875 14.4688 0.96875ZM13.9062 13.9062H10.6701V9.58555H12.4982L12.7725 7.46387H10.6701V6.10859C10.6701 5.49336 10.8406 5.075 11.7213 5.075H12.8445V3.17656C12.6494 3.1502 11.9832 3.09219 11.2063 3.09219C9.58555 3.09219 8.47637 4.08184 8.47637 5.89766V7.46211H6.64473V9.58379H8.47813V13.9062H2.09375V2.09375H13.9062V13.9062Z" fill="#8C8C8C"/>
</svg>
