<svg width="16" height="16" viewBox="0 0 16 16" fill="none" xmlns="http://www.w3.org/2000/svg">
<path d="M14.5338 9.1707C14.6059 8.7752 14.6445 8.3709 14.6445 7.9666C14.6445 7.07012 14.4688 6.2 14.1225 5.38262C13.7885 4.5916 13.3086 3.88145 12.6986 3.27148C12.0938 2.66508 11.3768 2.18209 10.5875 1.84941C9.76837 1.50313 8.90001 1.32734 8.00353 1.32734C7.58165 1.32734 7.15802 1.36777 6.74669 1.44687C6.17754 1.14528 5.54336 0.987183 4.89923 0.986328C3.84982 0.986328 2.86193 1.3959 2.12013 2.1377C1.75409 2.50186 1.46386 2.93497 1.26624 3.41199C1.06861 3.889 0.967504 4.40046 0.968762 4.9168C0.968762 5.58477 1.14103 6.24219 1.46271 6.82227C1.39767 7.19844 1.36251 7.5834 1.36251 7.9666C1.36251 8.86309 1.53829 9.7332 1.88458 10.5506C2.21857 11.3416 2.69669 12.0518 3.30665 12.6617C3.91661 13.2717 4.62677 13.7498 5.41779 14.0838C6.23693 14.4301 7.10529 14.6059 8.00177 14.6059C8.392 14.6059 8.78224 14.5707 9.16544 14.5021C9.75431 14.8344 10.4188 15.0119 11.099 15.0119C12.1484 15.0119 13.1363 14.6041 13.8781 13.8605C14.6217 13.1188 15.0295 12.1309 15.0295 11.0814C15.0313 10.4135 14.859 9.7543 14.5338 9.1707ZM12.9852 12.9676C12.4807 13.4738 11.8145 13.748 11.1008 13.748C10.642 13.748 10.1902 13.6285 9.78947 13.4018L9.39396 13.1785L8.94572 13.2576C8.63282 13.3139 8.31642 13.342 8.00353 13.342C7.27579 13.342 6.57443 13.1996 5.90997 12.9184C5.27189 12.6494 4.69708 12.2627 4.20138 11.767C3.71068 11.278 3.31965 10.6983 3.05001 10.0602C2.76876 9.39746 2.62814 8.69609 2.62814 7.96836C2.62814 7.6625 2.65626 7.34961 2.709 7.04023L2.78634 6.59902L2.56837 6.20703C2.34853 5.81252 2.23297 5.36843 2.23263 4.9168C2.23263 4.20313 2.50861 3.53691 3.0131 3.03242C3.51935 2.52793 4.18556 2.25195 4.89923 2.25195C5.33696 2.25314 5.76779 2.36114 6.15431 2.5666L6.54806 2.77402L6.984 2.68965C7.31622 2.62637 7.659 2.59297 8.00353 2.59297C8.73126 2.59297 9.43263 2.73535 10.0953 3.01484C10.7369 3.28555 11.31 3.67227 11.8039 4.16621C12.2996 4.66016 12.6863 5.23496 12.957 5.8748C13.2383 6.5375 13.3789 7.23887 13.3789 7.9666C13.3789 8.29004 13.349 8.61699 13.2893 8.94219L13.2067 9.39043L13.4281 9.7877C13.6496 10.1832 13.7656 10.6314 13.7656 11.0832C13.7656 11.7986 13.4897 12.4631 12.9852 12.9676ZM9.25509 7.19492L7.70118 6.85039C7.11056 6.71504 6.43029 6.5375 6.43029 5.98027C6.43029 5.42305 6.90665 5.03281 7.76798 5.03281C9.50294 5.03281 9.34474 6.22461 10.2061 6.22461C10.6596 6.22461 11.0568 5.95742 11.0568 5.50039C11.0568 4.43164 9.34474 3.62832 7.89279 3.62832C6.31603 3.62832 4.63732 4.29805 4.63732 6.08047C4.63732 6.93828 4.94318 7.85234 6.63419 8.27598L8.73302 8.7998C9.36759 8.95625 9.52755 9.31309 9.52755 9.63652C9.52755 10.1727 8.99494 10.6965 8.0299 10.6965C6.14552 10.6965 6.40743 9.24629 5.39845 9.24629C4.94493 9.24629 4.61622 9.55918 4.61622 10.0039C4.61622 10.8723 5.67091 12.0324 8.0299 12.0324C10.2746 12.0324 11.3873 10.9514 11.3873 9.50117C11.3873 8.56777 10.9567 7.57461 9.25509 7.19492Z" fill="#8C8C8C"/>
</svg>
