<svg width="16" height="16" viewBox="0 0 16 16" fill="none" xmlns="http://www.w3.org/2000/svg">
<path d="M14.4178 3.1959L12.5457 1.32559C12.3172 1.09707 12.0113 0.96875 11.6879 0.96875C11.3645 0.96875 11.0586 1.09531 10.8301 1.32559L8.81387 3.33828C8.58535 3.5668 8.45703 3.87441 8.45703 4.19785C8.45703 4.52305 8.58359 4.82715 8.81387 5.05742L10.3889 6.63418C10.0301 7.47017 9.51454 8.22974 8.87012 8.87187C8.225 9.52051 7.4709 10.032 6.63418 10.3941L5.05918 8.81738C4.83066 8.58887 4.5248 8.46055 4.20137 8.46055C4.04183 8.45996 3.88379 8.49121 3.73649 8.55249C3.58919 8.61376 3.4556 8.70382 3.34355 8.81738L1.32559 10.8301C1.09707 11.0586 0.96875 11.3662 0.96875 11.6896C0.96875 12.0148 1.09531 12.3189 1.32559 12.5492L3.1959 14.4195C3.58613 14.8098 4.12402 15.033 4.67598 15.033C4.79023 15.033 4.90098 15.0242 5.01348 15.0049C7.34082 14.6217 9.65059 13.3824 11.5156 11.5191C13.3789 9.65234 14.6164 7.34258 15.0031 5.01348C15.1139 4.35254 14.8924 3.67227 14.4178 3.1959ZM13.7568 4.8043C13.4141 6.87676 12.2996 8.94395 10.6209 10.6227C8.94219 12.3014 6.87676 13.4158 4.8043 13.7586C4.54414 13.8025 4.27695 13.7146 4.08711 13.5266L2.2502 11.6896L4.19785 9.74023L6.30371 11.8496L6.31953 11.8654L6.69922 11.7248C7.85046 11.3015 8.89589 10.633 9.76307 9.76551C10.6302 8.89803 11.2984 7.85237 11.7213 6.70098L11.8619 6.32129L9.73848 4.19961L11.6861 2.2502L13.523 4.08711C13.7129 4.27695 13.8008 4.54414 13.7568 4.8043Z" fill="#8C8C8C"/>
</svg>
