<svg width="16" height="16" viewBox="0 0 16 16" fill="none" xmlns="http://www.w3.org/2000/svg">
<path d="M8.00001 0.6875C6.7299 0.687841 5.48177 1.0189 4.37847 1.6481C3.27516 2.27729 2.35471 3.18294 1.7077 4.27589C1.06069 5.36885 0.709434 6.61145 0.688494 7.88138C0.667555 9.15131 0.977658 10.4048 1.58828 11.5185L0.987319 13.6219C0.932201 13.8148 0.929673 14.019 0.979999 14.2132C1.03032 14.4074 1.13167 14.5846 1.27354 14.7265C1.4154 14.8683 1.59262 14.9697 1.78684 15.02C1.98105 15.0703 2.18519 15.0678 2.3781 15.0127L4.48157 14.4117C5.45907 14.9481 6.54628 15.2538 7.66006 15.3056C8.77385 15.3574 9.88473 15.1537 10.9078 14.7103C11.9308 14.2669 12.8389 13.5955 13.5626 12.7473C14.2863 11.8991 14.8065 10.8966 15.0834 9.81657C15.3603 8.73651 15.3866 7.60743 15.1602 6.51567C14.9338 5.4239 14.4608 4.39836 13.7772 3.51745C13.0937 2.63653 12.2178 1.92358 11.2165 1.43309C10.2152 0.942606 9.115 0.687575 8.00001 0.6875ZM8.00001 14.1875C6.88884 14.1883 5.79802 13.8894 4.84248 13.3222C4.77658 13.2831 4.70337 13.2578 4.62735 13.2479C4.55132 13.238 4.47407 13.2438 4.40036 13.2649L2.06908 13.931L2.73508 11.5996C2.75613 11.526 2.7619 11.4487 2.75204 11.3727C2.74217 11.2967 2.71688 11.2235 2.6777 11.1577C1.98081 9.98349 1.69182 8.6118 1.85575 7.25627C2.01968 5.90074 2.62732 4.63748 3.58403 3.66328C4.54073 2.68908 5.79277 2.05865 7.14511 1.87019C8.49745 1.68172 9.87415 1.94581 11.0608 2.62131C12.2474 3.29681 13.1772 4.3458 13.7055 5.60486C14.2339 6.86392 14.3309 8.26236 13.9816 9.58233C13.6323 10.9023 12.8563 12.0697 11.7743 12.9026C10.6924 13.7356 9.36541 14.1873 8.00001 14.1875ZM11.6911 9.05961L10.2525 8.23752C10.079 8.13847 9.88222 8.0874 9.68241 8.08954C9.48261 8.09167 9.28697 8.14695 9.11558 8.24968L8.28238 8.74967C7.85365 8.50238 7.49769 8.14643 7.2504 7.7177L7.75033 6.88435C7.85305 6.71296 7.90831 6.51733 7.91045 6.31752C7.91259 6.11772 7.86152 5.92095 7.76249 5.7474L6.9404 4.3088C6.84863 4.14869 6.71626 4.01561 6.55664 3.92299C6.39703 3.83036 6.2158 3.78147 6.03126 3.78125C5.36151 3.78151 4.71915 4.04708 4.24475 4.51984C3.77036 4.9926 3.50257 5.63404 3.50001 6.30378C3.49886 7.11706 3.65806 7.92259 3.96849 8.6743C4.27892 9.426 4.7345 10.1091 5.30917 10.6846C5.88384 11.2601 6.56633 11.7167 7.31759 12.0282C8.06885 12.3397 8.87415 12.5 9.68744 12.5C9.69039 12.5 9.69475 12.5016 9.69629 12.5C10.366 12.4974 11.0074 12.2296 11.4802 11.7552C11.9529 11.2808 12.2185 10.6385 12.2188 9.96875C12.2185 9.7842 12.1696 9.60297 12.077 9.44335C11.9844 9.28373 11.8513 9.15137 11.6911 9.05961ZM9.69475 11.375C9.02871 11.376 8.36903 11.2455 7.75351 10.991C7.13799 10.7366 6.57873 10.3632 6.10777 9.89223C5.63681 9.42127 5.26342 8.86201 5.00898 8.24649C4.75453 7.63097 4.62405 6.97129 4.62501 6.30526C4.6267 5.94125 4.76955 5.5921 5.02349 5.33129C5.27742 5.07049 5.62264 4.91837 5.98647 4.90695L6.78571 6.30547L6.12562 7.40579C6.07893 7.48358 6.05176 7.5715 6.04641 7.66207C6.04106 7.75263 6.05769 7.84315 6.09489 7.92589C6.49016 8.80566 7.1944 9.50988 8.07419 9.90512C8.15691 9.94233 8.24742 9.95897 8.33798 9.95362C8.42853 9.94827 8.51645 9.92109 8.59422 9.87439L9.69454 9.2143L11.0931 10.0135C11.0817 10.3773 10.9296 10.7226 10.6688 10.9765C10.408 11.2305 10.0588 11.3733 9.69475 11.375Z" fill="#8C8C8C"/>
</svg>
